<?xml version="1.0" standalone="no"?>
<!DOCTYPE svg PUBLIC "-//W3C//DTD SVG 20010904//EN"
 "http://www.w3.org/TR/2001/REC-SVG-20010904/DTD/svg10.dtd">
<svg version="1.0" xmlns="http://www.w3.org/2000/svg"
 width="200.000000pt" height="200.000000pt" viewBox="0 0 200.000000 200.000000"
 preserveAspectRatio="xMidYMid meet">

<g transform="translate(0.000000,200.000000) scale(0.100000,-0.100000)"
fill="#000000" stroke="none">
<path d="M918 1523 l-86 -148 174 -3 c96 -1 253 -1 348 0 l175 3 -258 148
c-142 81 -260 147 -263 147 -2 0 -43 -66 -90 -147z"/>
<path d="M684 1498 l-262 -151 86 -148 c48 -82 89 -149 92 -149 3 0 70 114
150 252 80 138 158 273 173 299 16 27 27 49 25 48 -2 0 -121 -69 -264 -151z"/>
<path d="M1233 1333 c3 -5 80 -138 172 -298 93 -159 170 -292 171 -294 2 -2 4
131 4 297 l0 302 -176 0 c-96 0 -173 -3 -171 -7z"/>
<path d="M420 977 l0 -297 175 0 174 0 -28 48 c-15 26 -87 151 -161 277 -73
127 -139 239 -146 250 -12 16 -14 -25 -14 -278z"/>
<path d="M893 1177 l-93 -52 0 -116 0 -117 100 -57 100 -56 100 56 100 57 0
117 0 116 -94 53 c-52 28 -100 52 -108 52 -7 -1 -55 -24 -105 -53z"/>
<path d="M1222 664 c-94 -162 -167 -294 -163 -292 36 15 511 294 511 301 0 13
-161 287 -169 287 -5 0 -85 -133 -179 -296z"/>
<path d="M456 632 c11 -10 521 -302 527 -302 5 0 177 295 177 304 0 3 -161 6
-357 6 -196 0 -353 -4 -347 -8z"/>
</g>
</svg>
