<?xml version="1.0" encoding="utf-8"?>
<!-- Generator: Adobe Illustrator 28.4.1, SVG Export Plug-In . SVG Version: 6.00 Build 0)  -->
<svg version="1.1" id="Vrstva_1" xmlns="http://www.w3.org/2000/svg" xmlns:xlink="http://www.w3.org/1999/xlink" x="0px" y="0px"
	 viewBox="0 0 100 100" style="enable-background:new 0 0 100 100;" xml:space="preserve">
<style type="text/css">
	.st0{fill:#B9DAB1;}
</style>
<g>
	<path class="st0" d="M33.4,9.4l15.9-9.2c0.5-0.3,1-0.3,1.5,0l42,24.2c0.5,0.3,0.7,0.7,0.7,1.3l0.1,16.6c0,0.5-0.3,1-0.7,1.3
		l-15.9,9.2c-1,0.6-2.2-0.1-2.2-1.3l-0.1-14.9c0-0.5-0.3-1-0.7-1.3L33.4,11.9C32.4,11.4,32.4,9.9,33.4,9.4z"/>
	<path class="st0" d="M23.1,84.8L7.2,75.6c-0.5-0.3-0.7-0.7-0.7-1.3V25.9c0-0.5,0.3-1,0.7-1.3l14.4-8.4c0.5-0.3,1-0.3,1.5,0L39,25.4
		c1,0.6,1,2,0,2.5L26,35.5c-0.5,0.3-0.7,0.7-0.7,1.3v46.7C25.3,84.7,24.1,85.4,23.1,84.8L23.1,84.8z"/>
	<path class="st0" d="M93.5,56v18.4c0,0.5-0.3,1-0.7,1.3l-42,24.2c-0.5,0.3-1,0.3-1.5,0l-14.5-8.3c-0.5-0.3-0.7-0.7-0.7-1.3V71.9
		c0-1.1,1.2-1.8,2.2-1.3l13,7.4c0.5,0.3,1,0.3,1.5,0l40.5-23.4C92.3,54.1,93.5,54.8,93.5,56L93.5,56z"/>
</g>
</svg>
