<?xml version="1.0" standalone="no"?>
<!DOCTYPE svg PUBLIC "-//W3C//DTD SVG 20010904//EN"
 "http://www.w3.org/TR/2001/REC-SVG-20010904/DTD/svg10.dtd">
<svg version="1.0" xmlns="http://www.w3.org/2000/svg"
 width="400.000000pt" height="400.000000pt" viewBox="0 0 400.000000 400.000000"
 preserveAspectRatio="xMidYMid meet">

<g transform="translate(0.000000,400.000000) scale(0.100000,-0.100000)"
fill="#000000" stroke="none">
<path d="M1885 3749 c-130 -8 -252 -29 -391 -70 -541 -156 -990 -596 -1162
-1140 -54 -167 -73 -280 -79 -460 -6 -165 2 -339 16 -339 4 0 70 52 147 115
l141 115 6 108 c7 121 34 275 66 372 36 108 146 320 215 410 83 111 239 260
347 332 264 177 550 257 869 244 280 -11 500 -83 743 -242 194 -127 404 -368
492 -567 17 -36 35 -67 40 -67 6 0 75 21 153 48 l143 47 -54 110 c-244 496
-696 846 -1234 955 -91 18 -138 23 -303 33 -25 2 -94 0 -155 -4z"/>
<path d="M1205 2248 c-303 -247 -677 -553 -831 -679 -155 -126 -287 -235 -293
-242 -6 -7 275 130 624 305 349 175 635 313 635 307 0 -7 -14 -98 -30 -202
-17 -104 -30 -193 -28 -198 2 -4 230 125 507 287 277 162 505 293 507 291 2
-2 -24 -121 -57 -266 -33 -144 -59 -265 -56 -267 3 -3 162 81 354 187 542 299
583 322 996 549 213 117 386 214 384 216 -2 2 -50 -12 -108 -30 -465 -152
-1159 -369 -1163 -365 -3 2 6 123 20 268 13 145 22 266 20 269 -3 2 -108 -54
-233 -125 -125 -72 -302 -172 -393 -223 -91 -52 -210 -119 -265 -151 -55 -31
-101 -56 -102 -55 -1 1 13 130 32 286 20 155 34 284 33 286 -2 1 -251 -200
-553 -448z"/>
<path d="M3589 2129 l-146 -81 -7 -114 c-30 -536 -325 -985 -802 -1223 -209
-104 -391 -145 -639 -145 -306 1 -545 74 -805 245 -177 117 -374 339 -471 531
-16 32 -32 58 -34 58 -5 0 -267 -130 -274 -135 -1 -2 18 -43 43 -92 135 -254
371 -505 622 -661 448 -278 987 -338 1499 -166 469 157 881 554 1059 1021 43
112 92 310 106 423 11 91 12 347 1 392 l-6 28 -146 -81z"/>
</g>
</svg>
