<?xml version="1.0" standalone="no"?>
<!DOCTYPE svg PUBLIC "-//W3C//DTD SVG 20010904//EN"
 "http://www.w3.org/TR/2001/REC-SVG-20010904/DTD/svg10.dtd">
<svg version="1.0" xmlns="http://www.w3.org/2000/svg"
 width="200.000000pt" height="200.000000pt" viewBox="0 0 200.000000 200.000000"
 preserveAspectRatio="xMidYMid meet">

<g transform="translate(0.000000,200.000000) scale(0.100000,-0.100000)"
fill="#000000" stroke="none">
<path d="M0 1000 l0 -1000 1000 0 1000 0 0 1000 0 1000 -1000 0 -1000 0 0
-1000z m978 525 c20 -9 78 -56 128 -105 l91 -90 112 0 c158 0 151 10 151 -225
0 -172 -1 -186 -20 -205 -19 -19 -33 -20 -450 -20 -510 0 -481 12 -336 -138
104 -108 125 -149 106 -206 -15 -45 -48 -66 -107 -66 -51 0 -82 18 -102 57
-16 31 -15 493 1 528 22 48 52 55 233 55 120 0 175 -4 198 -14 18 -8 72 -55
122 -105 49 -50 98 -91 107 -91 17 0 18 16 18 205 l0 205 -306 0 c-267 0 -309
2 -334 17 -72 42 -66 157 10 195 48 25 321 26 378 3z"/>
</g>
</svg>
