<?xml version="1.0" standalone="no"?>
<!DOCTYPE svg PUBLIC "-//W3C//DTD SVG 20010904//EN"
 "http://www.w3.org/TR/2001/REC-SVG-20010904/DTD/svg10.dtd">
<svg version="1.0" xmlns="http://www.w3.org/2000/svg"
 width="300.000000pt" height="300.000000pt" viewBox="0 0 300.000000 300.000000"
 preserveAspectRatio="xMidYMid meet">

<g transform="translate(0.000000,300.000000) scale(0.100000,-0.100000)"
fill="#000000" stroke="none">
<path d="M1305 2950 c-22 -4 -69 -13 -105 -20 -35 -6 -69 -15 -75 -19 -5 -5
-23 -11 -40 -14 -45 -8 -107 -32 -209 -83 -106 -53 -119 -60 -167 -96 -20 -16
-41 -28 -46 -28 -25 0 -333 -308 -333 -334 0 -4 -12 -25 -27 -45 -37 -48 -46
-63 -89 -151 -20 -41 -43 -87 -50 -102 -8 -14 -14 -35 -14 -45 0 -10 -4 -23
-9 -28 -5 -6 -16 -37 -26 -70 -9 -33 -21 -69 -25 -80 -44 -110 -43 -583 1
-667 5 -10 9 -27 9 -37 0 -11 5 -23 10 -26 6 -3 10 -16 10 -28 0 -12 7 -35 15
-51 8 -15 15 -35 15 -43 0 -8 6 -27 14 -41 7 -15 30 -61 50 -102 43 -87 52
-102 87 -150 14 -19 28 -40 30 -47 5 -14 95 -118 155 -177 101 -102 175 -161
279 -222 57 -34 227 -114 242 -114 10 0 27 -7 37 -15 11 -8 32 -15 46 -15 14
0 30 -4 35 -9 6 -6 37 -15 70 -20 33 -6 89 -16 125 -22 79 -14 442 -8 462 8 7
6 37 13 67 16 30 4 59 11 65 17 5 5 19 10 31 10 11 0 33 7 49 15 15 8 35 15
43 15 41 0 349 172 361 202 2 4 8 8 14 8 24 0 187 162 276 275 43 54 106 159
141 231 23 49 46 97 52 106 5 10 9 23 9 29 0 6 6 25 13 42 53 124 71 247 71
477 0 230 -18 353 -71 477 -7 17 -13 36 -13 42 0 6 -4 19 -9 29 -6 9 -29 57
-52 106 -35 72 -98 176 -141 231 -84 108 -253 275 -276 275 -6 0 -12 4 -14 8
-12 30 -320 202 -361 202 -8 0 -28 7 -43 15 -16 8 -38 15 -50 15 -11 0 -25 5
-30 10 -6 6 -35 13 -65 17 -30 3 -60 11 -68 16 -16 14 -418 19 -476 7z m485
-806 c73 -16 141 -45 204 -86 32 -21 60 -38 62 -38 5 0 74 -70 74 -75 0 -2 10
-15 23 -29 21 -23 45 -67 82 -149 12 -29 17 -67 17 -153 0 -126 -15 -186 -64
-262 -15 -24 -28 -46 -28 -50 -1 -4 -21 -27 -45 -52 -25 -25 -45 -50 -45 -57
0 -12 10 -31 77 -151 18 -31 44 -81 58 -109 15 -29 30 -55 36 -58 5 -4 9 -13
9 -21 0 -12 -38 -14 -239 -14 l-239 0 -28 48 c-15 26 -33 56 -39 67 -42 78
-60 95 -100 96 -87 2 -320 -3 -327 -7 -4 -3 -8 -50 -8 -105 l0 -99 -242 2
-243 3 -3 645 c-1 355 0 651 3 658 4 10 103 12 482 9 263 -2 498 -8 523 -13z"/>
<path d="M1360 1710 l-85 -5 0 -100 0 -100 207 -3 207 -2 35 35 c48 48 50 102
7 146 -32 31 -19 29 -216 33 -38 0 -108 -1 -155 -4z"/>
</g>
</svg>
