<?xml version="1.0" standalone="no"?>
<!DOCTYPE svg PUBLIC "-//W3C//DTD SVG 20010904//EN"
 "http://www.w3.org/TR/2001/REC-SVG-20010904/DTD/svg10.dtd">
<svg version="1.0" xmlns="http://www.w3.org/2000/svg"
 width="400.000000pt" height="400.000000pt" viewBox="0 0 400.000000 400.000000"
 preserveAspectRatio="xMidYMid meet">

<g transform="translate(0.000000,400.000000) scale(0.100000,-0.100000)"
fill="#000000" stroke="none">
<path d="M0 2000 l0 -2000 2000 0 2000 0 0 2000 0 2000 -2000 0 -2000 0 0
-2000z m1855 1003 c75 -134 141 -243 145 -243 4 0 74 117 156 260 81 143 151
257 155 252 4 -4 239 -414 523 -912 l517 -905 -304 -5 -304 -5 148 -260 149
-260 -520 -3 c-286 -1 -754 -1 -1040 0 l-520 3 149 260 148 260 -304 3 c-168
1 -303 6 -301 11 2 4 236 416 522 915 453 794 520 905 530 889 7 -10 75 -127
151 -260z"/>
<path d="M1631 2098 l-361 -633 365 -3 c201 -1 529 -1 730 0 l365 3 -360 630
c-198 346 -364 631 -369 633 -4 1 -171 -282 -370 -630z m514 86 c72 -35 137
-108 165 -182 31 -80 25 -195 -14 -270 -33 -64 -91 -123 -154 -154 -68 -33
-216 -33 -284 0 -62 31 -121 89 -155 154 -25 47 -28 64 -28 148 0 84 3 102 28
152 41 84 129 155 222 179 57 15 160 2 220 -27z"/>
</g>
</svg>
