<?xml version="1.0" standalone="no"?>
<!DOCTYPE svg PUBLIC "-//W3C//DTD SVG 20010904//EN"
 "http://www.w3.org/TR/2001/REC-SVG-20010904/DTD/svg10.dtd">
<svg version="1.0" xmlns="http://www.w3.org/2000/svg"
 width="250.000000pt" height="250.000000pt" viewBox="0 0 250.000000 250.000000"
 preserveAspectRatio="xMidYMid meet">

<g transform="translate(0.000000,250.000000) scale(0.100000,-0.100000)"
fill="#000000" stroke="none">
<path d="M760 2000 c-163 -21 -320 -109 -411 -230 -58 -77 -99 -183 -99 -255
0 -56 29 -145 62 -189 88 -117 226 -181 506 -235 151 -29 216 -65 227 -124 7
-34 4 -40 -31 -73 l-38 -36 -111 4 c-98 4 -119 8 -171 33 -33 16 -83 54 -116
87 -31 32 -60 58 -63 58 -12 0 -275 -203 -275 -212 0 -18 61 -91 114 -137 147
-126 318 -191 501 -191 137 0 243 31 353 104 96 62 101 68 202 219 50 76 94
136 99 133 4 -3 63 -91 132 -195 l124 -191 213 0 c168 0 212 3 206 13 -7 11
-352 534 -431 654 l-35 53 53 82 c81 128 297 457 340 520 21 31 39 59 39 62 0
9 -403 7 -416 -2 -6 -4 -60 -81 -119 -171 l-108 -164 -21 26 c-12 15 -28 48
-35 73 -15 50 -19 55 -95 119 -169 141 -364 195 -596 165z m162 -359 c76 -13
160 -53 173 -82 6 -13 20 -28 31 -33 12 -5 33 -28 47 -50 13 -23 46 -74 72
-114 38 -59 45 -75 35 -87 -10 -13 -19 -9 -58 26 -71 62 -191 117 -307 139
-235 45 -275 61 -275 105 0 47 89 90 215 104 6 0 36 -3 67 -8z"/>
</g>
</svg>
