<svg id="logosandtypes_com" data-name="logosandtypes com" xmlns="http://www.w3.org/2000/svg" viewBox="0 0 150 150"><defs><style>.cls-1{fill:none;}.cls-2{fill:#56a0d3;}</style></defs><path class="cls-1" d="M0,.2H150v150H0Z" transform="translate(0 -0.2)"/><path class="cls-2" d="M142.19,60.85c-3.31-2.73-5.19-4.6-8.12-7.24-3.69-2.31-20.82-5.18-32-5.33-26-1.32,6.15,23.37-10.84,75.22C105,104.58,116.7,94.21,139.79,78.19c6.68-4.57,8-12.77,2.4-17.34" transform="translate(0 -0.2)"/><path class="cls-2" d="M69.57,73c-4-8.17-13-23.43-19.21-24.43C37.73,47.84,22,50.68,18.55,52.94c-8.83,6.08-20,15.64-7,25.48C37.94,96.82,52.29,111.17,68.17,135c2.86,6.06,12.07,6,14.94,0,.76-1.14,1.43-2.19,2.19-3.25A153.74,153.74,0,0,0,69.57,73.18" transform="translate(0 -0.2)"/><path class="cls-2" d="M75.08,13c-15.87,0-41.8,22.32-46.37,26.53A73.49,73.49,0,0,1,48.1,33.25c21.8-5.07,57.23-3.09,75.43,7.15C118.67,35.89,90.93,13,75.08,13" transform="translate(0 -0.2)"/></svg>