<?xml version="1.0" standalone="no"?>
<!DOCTYPE svg PUBLIC "-//W3C//DTD SVG 20010904//EN"
 "http://www.w3.org/TR/2001/REC-SVG-20010904/DTD/svg10.dtd">
<svg version="1.0" xmlns="http://www.w3.org/2000/svg"
 width="300.000000pt" height="300.000000pt" viewBox="0 0 300.000000 300.000000"
 preserveAspectRatio="xMidYMid meet">

<g transform="translate(0.000000,300.000000) scale(0.100000,-0.100000)"
fill="#000000" stroke="none">
<path d="M300 1500 l0 -1200 1200 0 1200 0 0 1200 0 1200 -1200 0 -1200 0 0
-1200z m1299 1030 c215 -22 403 -100 565 -234 41 -33 55 -40 86 -37 81 6 128
-49 116 -135 -5 -36 -2 -52 13 -73 31 -44 87 -162 109 -231 38 -120 47 -181
46 -330 -1 -122 -6 -161 -28 -244 -63 -240 -217 -461 -417 -597 -86 -58 -232
-126 -324 -150 -115 -30 -330 -37 -449 -15 -544 103 -911 613 -835 1163 15
113 74 280 133 380 57 96 184 237 280 309 125 95 334 175 501 193 44 5 85 9
91 10 7 0 57 -4 113 -9z"/>
<path d="M1365 2469 c-127 -18 -289 -81 -402 -156 -78 -51 -196 -165 -248
-238 -59 -83 -120 -208 -152 -312 -25 -81 -27 -102 -27 -258 -1 -204 14 -268
99 -440 66 -131 128 -211 233 -301 137 -117 274 -183 452 -220 114 -23 334
-15 439 15 211 62 374 169 507 335 151 189 225 422 211 660 -9 142 -38 252
-102 384 l-55 112 -51 0 c-43 0 -55 5 -81 30 -28 29 -30 35 -26 87 l5 55 -55
43 c-210 165 -488 241 -747 204z m340 -201 c228 -57 442 -242 534 -462 34 -83
61 -219 61 -310 -1 -132 -46 -291 -114 -405 -18 -31 -37 -73 -40 -93 -7 -39
-36 -68 -68 -68 -10 0 -46 -23 -80 -51 -139 -111 -306 -169 -493 -169 -232 0
-418 81 -581 253 -85 88 -135 175 -177 300 -28 85 -31 103 -31 232 0 164 13
224 79 360 162 336 537 506 910 413z"/>
<path d="M1415 2234 c-11 -2 -45 -9 -75 -15 -208 -42 -401 -197 -499 -402 -58
-122 -74 -202 -69 -344 8 -202 75 -352 223 -500 68 -67 99 -89 176 -126 137
-66 211 -81 366 -74 171 7 266 38 400 133 61 44 61 44 60 90 -2 37 2 49 22 65
13 10 38 19 57 19 28 0 38 6 58 39 62 98 106 256 106 381 0 327 -213 610 -535
710 -67 20 -243 35 -290 24z m276 -180 c180 -64 321 -213 374 -399 23 -78 23
-220 1 -304 -46 -178 -188 -334 -362 -398 -93 -34 -242 -42 -334 -19 -202 51
-366 207 -424 404 -75 258 47 552 280 674 107 57 161 68 294 65 83 -3 131 -9
171 -23z"/>
<path d="M1390 1861 c-71 -23 -150 -77 -150 -102 0 -10 18 -31 40 -49 l39 -31
38 25 c71 47 174 53 245 15 19 -10 19 -12 -11 -43 l-32 -33 26 -17 c14 -9 31
-28 37 -42 6 -13 17 -24 23 -24 12 0 135 135 135 149 0 12 -45 70 -71 89 -62
49 -112 66 -204 69 -49 1 -101 -1 -115 -6z"/>
<path d="M1465 1619 c-76 -22 -117 -118 -81 -188 38 -72 137 -94 197 -44 84
71 68 187 -31 227 -45 18 -43 18 -85 5z"/>
<path d="M1283 1355 c-35 -35 -63 -72 -63 -81 0 -32 102 -119 166 -144 49 -18
74 -21 144 -18 96 5 162 32 215 87 l29 31 -41 41 -40 41 -42 -30 c-69 -50
-170 -60 -238 -23 -29 15 -29 19 1 50 l25 26 -40 43 c-22 23 -43 42 -47 41 -4
0 -35 -29 -69 -64z"/>
</g>
</svg>
