<svg xmlns="http://www.w3.org/2000/svg" viewBox="0 0 400 400"><g fill-rule="evenodd"><path fill="#fff" d="M.044 20.1c.025 11.466.183 19.398.368 18.466.38-1.92 2.153-7.364 3.049-9.366 1.436-3.21 2.726-5.6 3.023-5.6.174 0 .316-.193.316-.428 0-.943 3.506-5.449 6.815-8.757C20.791 7.238 29.197 2.824 39.52.813 42.632.207 356.083.24 359.376.847c5.888 1.085 13.716 4.113 17.38 6.721.642.458 1.365.832 1.606.832.241 0 .438.141.438.314 0 .172.548.637 1.218 1.033 1.498.885 7.836 7.138 9.176 9.053.539.77 1.208 1.635 1.487 1.923 1.28 1.318 5.719 9.879 5.719 11.028 0 .331.18.713.4.849.22.136.4.676.4 1.2 0 .524.161 1.052.358 1.174.197.121.461.897.588 1.723a195 195 0 0 0 .703 4.103c.356 1.959.513 40.836.637 157.8.165 155.695.145 158.517-1.146 163.6-1.266 4.985-1.265 4.983-2.234 7.4-1.225 3.057-4.551 9.2-4.98 9.2-.179 0-.326.27-.326.6 0 .33-.18.6-.4.6-.22 0-.4.177-.4.393 0 1.049-8.681 9.629-10.9 10.775-.605.312-1.1.717-1.1.9 0 .182-.193.332-.428.332s-1.18.502-2.1 1.116c-2.373 1.583-5.899 3.218-8.872 4.113-.88.265-1.96.625-2.4.799-.878.349-2.445.656-5.8 1.138-1.264.182 7.118.341 19.7.375L400 400V0H0l.044 20.1M216.4 47.017c-.33.1-3.57.369-7.2.597-6.777.426-11.043.853-15.6 1.562-1.43.222-3.41.509-4.4.637-.99.128-2.16.391-2.6.585-.44.194-1.52.46-2.4.593l-3.103.467c-.826.124-1.602.387-1.723.584-.122.197-.83.358-1.574.358-.744 0-1.464.18-1.6.4-.136.22-.629.4-1.095.4-.467 0-1.401.181-2.077.402l-6.692 2.187c-9.048 2.954-29.107 11.823-30.336 13.412-.11.142-1.009.695-1.998 1.229-.989.533-2.147 1.285-2.575 1.67-.428.385-1.014.7-1.302.7-.289 0-.525.18-.525.4 0 .22-.236.4-.525.4-.288 0-.873.324-1.3.719-.426.396-1.945 1.508-3.375 2.47-1.43.963-2.69 1.863-2.8 2-.11.137-.83.688-1.6 1.225-1.543 1.075-2.042 1.465-4.752 3.729-6.139 5.125-13.009 11.764-16.842 16.275-1.207 1.42-2.425 2.823-2.706 3.117-.282.294-1.003 1.194-1.604 2-.6.806-1.191 1.555-1.312 1.665-2.453 2.22-11.419 16.269-15.061 23.6-.602 1.21-1.235 2.26-1.408 2.333-.173.074-.315.479-.315.9 0 .422-.18.767-.4.767-.22 0-.4.349-.4.776 0 .427-.18.888-.4 1.024-.22.136-.4.597-.4 1.024 0 .427-.18.776-.4.776-.22 0-.4.272-.4.605 0 .333-.159.918-.353 1.3-.331.65-.668 1.448-1.647 3.895-.22.55-.57 1.405-.779 1.9-.537 1.279-2.562 7.56-3.577 11.1a220.764 220.764 0 0 1-1.252 4.228c-.216.676-.392 1.61-.392 2.077 0 .466-.154.943-.343 1.06-.188.116-.452 1.162-.585 2.323-.134 1.162-.608 4.092-1.054 6.512-2.74 14.865-2.904 34.057-.43 50.304 1.422 9.341 1.698 10.9 2.054 11.591.197.382.358.999.358 1.371 0 .373.168 1.23.373 1.906.205.675.589 2.038.854 3.028.935 3.498 1.275 4.607 1.622 5.295.193.382.351 1.046.351 1.476 0 .43.18.893.4 1.029.22.136.4.651.4 1.144 0 .493.143 1.067.318 1.276.175.209.547 1.1.827 1.98.279.88.676 2.005.881 2.5.206.495.575 1.395.821 2 .245.605.605 1.413.8 1.795.194.382.353.967.353 1.3 0 .333.18.605.4.605.22 0 .4.265.4.588 0 .323.36 1.229.8 2.012.44.783.8 1.689.8 2.012 0 .323.18.588.4.588.22 0 .4.265.4.589 0 .324.446 1.359.991 2.3a82.992 82.992 0 0 1 2.081 3.911c.6 1.21 1.189 2.29 1.309 2.4.121.11.461.63.757 1.155l1.31 2.331c1.745 3.107 10.737 15.859 11.927 16.914.124.11.838.989 1.587 1.954 5.506 7.089 19.048 19.553 27.438 25.254 1.1.747 2.349 1.681 2.775 2.075.427.395 1.012.717 1.3.717.289 0 .525.15.525.332 0 .183.495.588 1.1.9.605.313 1.449.883 1.875 1.268.427.385 1.012.7 1.3.7.289 0 .526.135.528.3.002.165.407.498.9.74 1.836.902 4.504 2.367 4.697 2.581 1.106 1.22 17.642 8.511 24.4 10.759 2.09.694 4.16 1.408 4.6 1.586 1.709.69 3.694 1.234 4.505 1.234.466 0 .947.16 1.068.356.121.195.806.452 1.523.571.717.118 2.114.418 3.104.666 7.38 1.848 14.3 3.007 24.4 4.087 5.888.63 24.931.628 30.4-.003 7.628-.88 14.925-2.096 19.4-3.234 3.935-1 5.285-1.315 6.504-1.516.717-.119 1.402-.376 1.523-.571.121-.196.536-.356.923-.356 1.354 0 12.902-3.988 18.45-6.372 7.217-3.102 19.252-9.095 19.533-9.728.074-.165.479-.3.9-.3.422 0 .767-.158.767-.351 0-.194.54-.576 1.2-.849.66-.273 1.2-.655 1.2-.849 0-.193.19-.351.422-.351.232 0 1.482-.72 2.778-1.6 1.296-.88 2.531-1.6 2.745-1.6.213 0 .448-.149.522-.33.073-.182 1.573-1.293 3.333-2.468 1.76-1.176 3.29-2.251 3.4-2.389.11-.138.83-.687 1.6-1.22 3.598-2.49 11.202-8.935 16.036-13.593l3.114-3-1.021-1.2c-.562-.66-2.417-2.73-4.123-4.6-1.705-1.87-3.597-3.993-4.203-4.717a62.992 62.992 0 0 0-2.353-2.619c-.687-.717-4.13-4.521-7.65-8.454-3.52-3.933-6.76-7.531-7.2-7.996-.44-.464-1.968-2.188-3.397-3.829-3.261-3.749-3.487-3.985-3.812-3.985-.147 0-1.285.97-2.529 2.156-1.244 1.186-2.892 2.67-3.662 3.298a62.525 62.525 0 0 0-1.837 1.543c-.24.222-1.029.853-1.753 1.403a52.88 52.88 0 0 0-2.163 1.735c-.466.405-1.342 1.028-1.947 1.386-.605.359-1.1.793-1.1.965 0 .173-.27.314-.6.314-.33 0-.6.18-.6.4 0 .22-.188.4-.417.4-.229 0-.772.331-1.206.736-.435.405-1.282.984-1.884 1.288-.601.303-1.845 1.052-2.765 1.664-.92.611-1.865 1.112-2.1 1.112-.235 0-.429.135-.431.3-.002.165-.407.502-.9.75-.493.247-3.014 1.537-5.601 2.866-6.822 3.505-19.627 8.484-21.82 8.484-.456 0-.928.16-1.049.356-.121.195-.806.456-1.523.578-.717.122-2.204.42-3.304.662a151.544 151.544 0 0 1-8.8 1.665c-3.606.582-25.08.582-28.8.001-1.54-.241-3.61-.544-4.6-.673-.99-.129-2.16-.393-2.6-.587-.44-.194-1.43-.441-2.2-.549-1.96-.274-3.662-.658-4.6-1.035-.44-.178-2.15-.74-3.8-1.249-6.806-2.102-21.2-8.652-21.2-9.647 0-.177-.188-.322-.418-.322-.397 0-6.361-3.858-6.782-4.387-.11-.138-.83-.687-1.6-1.219-.77-.532-1.641-1.201-1.935-1.487-.294-.285-1.186-1.011-1.983-1.613-5.917-4.467-20.482-21.562-20.482-24.041 0-.249-.152-.453-.337-.453-.186 0-.771-.855-1.3-1.9-.53-1.045-1.098-1.96-1.263-2.033-.165-.074-.3-.479-.3-.9 0-.422-.18-.767-.4-.767-.22 0-.4-.36-.4-.8 0-.44-.18-.8-.4-.8-.22 0-.4-.36-.4-.8 0-.44-.18-.8-.4-.8-.22 0-.4-.253-.4-.562 0-.309-.386-1.344-.857-2.3-.471-.956-1.032-2.188-1.246-2.738a23.12 23.12 0 0 0-.744-1.695 3.88 3.88 0 0 1-.353-1.476c0-.43-.18-.893-.4-1.029-.22-.136-.4-.676-.4-1.2 0-.524-.159-1.051-.352-1.17-.194-.12-.451-.626-.572-1.124a87.866 87.866 0 0 0-.675-2.506c-4.047-14.25-4.874-29.753-2.41-45.2.21-1.32.49-3.12.621-4 .13-.88.393-1.96.583-2.4.362-.84.717-2.323 1.078-4.504.118-.717.376-1.402.571-1.523.196-.121.356-.649.356-1.173s.18-1.064.4-1.2c.22-.136.4-.599.4-1.029 0-.43.159-1.094.353-1.476.195-.382.576-1.235.847-1.895.271-.66.652-1.513.847-1.895.194-.382.353-.967.353-1.3 0-.333.18-.605.4-.605.22 0 .4-.272.4-.605 0-.333.158-.918.35-1.3l2.07-4.095c.945-1.87 1.913-3.804 2.149-4.297.237-.493.566-.898.731-.9.165-.002.3-.194.3-.427 0-1.703 9.052-13.428 14.804-19.175 4.316-4.313 5.287-5.191 8.396-7.591.99-.764 1.89-1.503 2-1.643.939-1.19 13.61-8.826 17.607-10.61.546-.244 1.775-.829 2.731-1.3.956-.471 2.081-.857 2.5-.857.419 0 .762-.147.762-.328 0-.18.911-.576 2.025-.879 1.114-.303 2.115-.696 2.224-.872.109-.177.627-.321 1.151-.321s1.064-.18 1.2-.4c.136-.22.766-.4 1.4-.4.634 0 1.264-.18 1.4-.4.136-.22.766-.4 1.4-.4.634 0 1.264-.18 1.4-.4.136-.22.856-.4 1.6-.4.744 0 1.464-.18 1.6-.4.136-.22 1.011-.4 1.944-.4s1.867-.164 2.076-.365c.209-.2 1.37-.464 2.58-.586 1.21-.121 4.36-.445 7-.718 8.234-.853 17.823-.528 25.6.869 1.32.237 3.12.533 4 .657.88.124 1.771.387 1.98.584.209.197.963.359 1.676.359s1.408.18 1.544.4c.136.22.766.4 1.4.4.634 0 1.264.18 1.4.4.136.22.676.4 1.2.4.524 0 1.064.18 1.2.4.136.22.676.4 1.2.4.524 0 1.064.18 1.2.4.136.22.599.4 1.029.4.43 0 1.094.159 1.476.353.382.195 1.145.532 1.695.75 14.79 5.856 27.887 14.522 40.2 26.596l5.199 5.099 1.017-1.099c.559-.604 1.279-1.476 1.6-1.936.321-.461 1.241-1.631 2.044-2.6.803-.97 2.378-2.933 3.501-4.363 1.123-1.43 2.756-3.5 3.629-4.6l4.283-5.4c1.484-1.87 2.884-3.596 3.112-3.837.228-.24.865-1.033 1.415-1.763s1.225-1.555 1.5-1.835c.275-.279.5-.635.5-.79 0-.154.324-.572.719-.928.395-.356 1.152-1.277 1.681-2.047.529-.77 1.249-1.67 1.6-2 .351-.33 1.071-1.23 1.6-2 .529-.77 1.241-1.67 1.581-2 3.213-3.117 3.71-4.715 1.932-6.212-.708-.595-2.643-2.312-4.3-3.814-4.441-4.026-5.055-4.538-9.213-7.692-2.09-1.585-3.86-3.017-3.933-3.182-.074-.165-.389-.3-.7-.3-.312 0-.567-.18-.567-.4 0-.22-.255-.4-.567-.4-.311 0-.626-.149-.7-.33-.187-.464-6.206-4.47-6.715-4.47-.23 0-.418-.159-.418-.353 0-.195-.315-.454-.7-.576-.685-.217-2.904-1.475-3.3-1.871-1.748-1.748-21.964-10.952-29.407-13.388-1.756-.575-3.553-1.197-3.993-1.383-.44-.186-1.61-.559-2.6-.829-.99-.27-2.16-.637-2.6-.815-.44-.179-1.25-.416-1.8-.527-.55-.111-1.72-.41-2.6-.663-.88-.254-2.14-.548-2.8-.655-.66-.107-1.56-.351-2-.542-.767-.334-2.134-.587-5.6-1.036-.88-.114-1.96-.365-2.4-.557-.44-.192-1.79-.465-3-.607-1.21-.141-3.55-.423-5.2-.626-7.057-.869-22.694-1.752-24-1.355m-.6 76.202c-3.773.292-7.567.865-10.6 1.602-.99.24-2.387.534-3.104.652-.717.119-1.402.376-1.523.571-.121.196-.649.356-1.173.356s-1.064.18-1.2.4c-.136.22-.563.4-.948.4-.386 0-1.447.36-2.358.8-.91.44-1.934.8-2.275.8-.34 0-.619.18-.619.4 0 .22-.245.4-.544.4-.504 0-5.406 2.342-5.856 2.798-.187.189-1.086.718-3 1.764-.44.241-.89.528-1 .639-.11.11-.692.454-1.293.764-.602.309-1.412.854-1.8 1.21-.389.356-1.337 1.083-2.107 1.617-.77.533-1.49 1.068-1.6 1.189-.11.12-1.369 1.209-2.799 2.419-3.399 2.878-7.205 6.839-9.601 9.991a60.537 60.537 0 0 1-1.9 2.362c-.494.576-.899 1.206-.9 1.4 0 .194-.315.644-.7 1-.385.356-1.137 1.457-1.67 2.447-.534.99-1.079 1.89-1.211 2-.328.273-4.425 8.524-4.422 8.904.002.168-.34 1.068-.759 2-6.777 15.077-6.766 40.996.024 56.592.406.932.738 1.805.738 1.939 0 .327 3.295 7.112 3.577 7.365.242.217.917 1.368 2.144 3.657.43.802 1.298 2.062 1.929 2.8.632.739 1.149 1.553 1.149 1.81.001.256.136.526.301.6.165.073 1.093 1.123 2.062 2.333 2.135 2.664 9.313 9.815 11.475 11.432.86.642 1.795 1.387 2.078 1.654.283.267 1.048.801 1.7 1.186.652.385 1.185.842 1.185 1.014 0 .173.174.314.387.314.375 0 4.925 2.772 5.896 3.592.266.224.761.408 1.1.408.339 0 .617.18.617.4 0 .22.36.4.8.4.44 0 .8.18.8.4 0 .22.36.4.8.4.44 0 .8.18.8.4 0 .22.272.4.605.4.333 0 .918.159 1.3.353.382.195 1.235.576 1.895.847.66.271 1.513.652 1.895.847a3.88 3.88 0 0 0 1.476.353c.43 0 .893.18 1.029.4.136.22.676.4 1.2.4.524 0 1.052.16 1.173.356.121.195.806.457 1.523.581l2.704.471c.77.136 1.76.405 2.2.598 2.269.998 24.055 1.327 29 .438 1.43-.257 3.276-.571 4.103-.698.826-.127 1.602-.391 1.723-.588.122-.197.841-.358 1.598-.358.757 0 1.376-.18 1.376-.4 0-.22.529-.4 1.176-.4.647 0 1.288-.18 1.424-.4.136-.22.687-.4 1.224-.4.537 0 .976-.18.976-.4 0-.22.272-.4.605-.4.333 0 .918-.159 1.3-.353a24.296 24.296 0 0 1 1.695-.75c2.045-.81 5.004-2.307 5.133-2.597.074-.165.479-.3.9-.3.422 0 .767-.159.767-.353 0-.195.315-.454.7-.576.687-.217 2.906-1.476 3.3-1.872.11-.11.692-.454 1.293-.764.602-.309 1.412-.854 1.8-1.21.389-.356 1.337-1.086 2.107-1.623.77-.536 1.601-1.162 1.848-1.389.246-.227 1.405-1.223 2.575-2.213 3.63-3.07 7.418-7.05 10.084-10.592 4.744-6.306 8.682-13.138 11.187-19.408.22-.55.558-1.313.753-1.695a3.88 3.88 0 0 0 .353-1.476c0-.43.18-.893.4-1.029.22-.136.4-.766.4-1.4 0-.634.18-1.264.4-1.4.22-.136.4-.766.4-1.4 0-.634.18-1.264.4-1.4.22-.136.4-.946.4-1.8 0-.854.158-1.651.351-1.77 1.027-.635 1.425-22.354.506-27.63-.268-1.54-.589-3.476-.714-4.303-.125-.826-.388-1.602-.585-1.723-.197-.122-.358-.603-.358-1.069 0-.901-.665-3.244-1.249-4.4-.193-.382-.351-.969-.351-1.305 0-.336-.159-.923-.353-1.305a27.056 27.056 0 0 1-.761-1.695c-.761-1.865-2.916-6.596-3.372-7.4-.25-.44-.827-1.52-1.284-2.4-.456-.879-.967-1.779-1.135-2-.167-.22-1.129-1.66-2.138-3.2-3.474-5.305-9.617-12.162-14.26-15.919-1.032-.835-2.107-1.735-2.387-2.001-1.558-1.474-8.859-6.114-11.61-7.379-.825-.379-1.5-.827-1.5-.995 0-.168-.253-.306-.562-.306-.309 0-1.344-.386-2.3-.857-.956-.471-2.188-1.032-2.738-1.246a23.12 23.12 0 0 1-1.695-.744 3.88 3.88 0 0 0-1.476-.353c-.43 0-.893-.18-1.029-.4-.136-.22-.676-.4-1.2-.4-.524 0-1.052-.16-1.173-.356-.121-.195-.806-.452-1.523-.571a52.673 52.673 0 0 1-3.104-.651c-7.094-1.716-16.084-2.293-25-1.603M.054 379.9L0 400l21.3-.056c11.937-.032 20.421-.194 19.3-.37-1.1-.172-2.859-.441-3.909-.597-1.05-.156-2.006-.439-2.124-.63-.118-.191-.643-.347-1.167-.347s-1.064-.18-1.2-.4c-.136-.22-.509-.4-.828-.4-.512 0-1.598-.43-5.372-2.13-1.058-.476-6.86-4.229-7.2-4.657-.11-.138-.83-.689-1.6-1.223-1.689-1.171-5.55-5.04-7.084-7.098-.611-.821-1.229-1.582-1.372-1.692-.746-.573-4.77-7.685-5.544-9.8a58.43 58.43 0 0 0-.706-1.8c-.917-2.219-1.857-5.591-2.23-8-.085-.55-.18 8.045-.21 19.1"/><path fill="#f68c1f" d="M41.2 1.628C19.846 4.874 3.133 21.698.99 42.106c-.157 1.488-.443 2.803-.637 2.923-.458.283-.469 310.171-.01 310.171.188 0 .459 1.26.602 2.8.596 6.409 3.353 13.939 7.273 19.865C10.405 381.17 18.606 390 19.489 390c.212 0 .91.45 1.549 1 .639.549 1.372.999 1.629 1 .256 0 .526.149.6.331.476 1.185 9.567 4.731 15.309 5.972 5.113 1.105 316.659 1.078 321.79-.028 19.3-4.161 32.491-17.193 37.121-36.675 1.095-4.608 1.111-317.559.016-322.624-1.283-5.936-4.938-14.948-6.722-16.576-.121-.11-.651-.83-1.178-1.6-6.744-9.848-18.064-16.742-31.203-19.001-3.85-.662-312.874-.829-317.2-.171M238 47.151c1.87.229 4.66.611 6.2.847 1.54.237 3.7.53 4.8.653 1.1.122 2.171.386 2.38.586.209.2.908.363 1.554.363.645 0 1.914.194 2.82.432.905.237 2.366.612 3.246.833 3.049.764 4.805 1.229 5.8 1.535.55.169 1.81.529 2.8.801 4.354 1.194 13.535 4.446 18 6.375 4.989 2.155 17.71 8.533 18.4 9.225.11.11.74.467 1.4.792 7.946 3.92 32.605 23.261 32.598 25.569-.001.351-.496 1.178-1.1 1.838-.604.66-1.59 1.859-2.192 2.665-.602.806-1.322 1.706-1.6 2-.278.294-.998 1.194-1.6 2-.602.806-1.322 1.706-1.6 2-.278.294-.981 1.165-1.561 1.935a65.12 65.12 0 0 1-1.8 2.283c-.41.486-5.515 6.914-11.345 14.285-5.936 7.505-10.885 13.408-11.247 13.417-.356.008-3.069-2.37-6.03-5.285-5.895-5.804-6.708-6.505-13.331-11.5-3.89-2.933-7.524-5.301-12.392-8.075-1.525-.868-10.074-5.079-11.4-5.615a26.086 26.086 0 0 1-1.695-.757c-.382-.194-.967-.353-1.3-.353-.333 0-.605-.18-.605-.4 0-.22-.439-.4-.976-.4-.537 0-1.088-.18-1.224-.4-.136-.22-.676-.4-1.2-.4-.524 0-1.064-.18-1.2-.4-.136-.22-.676-.4-1.2-.4-.524 0-1.064-.18-1.2-.4-.136-.22-.676-.4-1.2-.4-.524 0-1.064-.18-1.2-.4-.136-.22-.856-.4-1.6-.4-.744 0-1.464-.18-1.6-.4-.136-.22-.831-.4-1.544-.4-.713 0-1.467-.163-1.676-.363-.209-.2-1.28-.465-2.38-.589-1.1-.124-3.35-.433-5-.685-1.65-.253-7.32-.459-12.6-.458-8.997.001-12.991.278-18.8 1.303-1.32.233-3.076.525-3.903.65-.826.125-1.602.387-1.723.584-.122.197-.83.358-1.574.358-.744 0-1.464.18-1.6.4-.136.22-.766.4-1.4.4-.634 0-1.264.18-1.4.4-.136.22-.676.4-1.2.4-.524 0-1.064.18-1.2.4-.136.22-.599.4-1.029.4a3.88 3.88 0 0 0-1.476.353c-.676.344-1.961.884-3.795 1.596-.495.192-1.8.755-2.9 1.251l-3 1.35c-.55.247-1.09.54-1.2.652-.178.18-3.874 2.148-6.297 3.352-.493.245-.898.581-.9.746-.002.165-.196.3-.433.3-.654 0-7.286 4.642-11.145 7.8-4.248 3.477-9.356 8.591-12.651 12.667-1.305 1.613-2.476 3.023-2.603 3.133-.353.306-3.718 5.189-4.166 6.045-.217.415-.532.755-.7.755-.168 0-.305.197-.305.438s-.339.916-.753 1.5c-1.521 2.146-5.641 10.016-6.89 13.162-.862 2.171-1.273 3.145-1.604 3.795a3.88 3.88 0 0 0-.353 1.476c0 .43-.159.88-.354 1-.195.121-.45.716-.567 1.324a33.268 33.268 0 0 1-.624 2.505c-3.595 12.266-4.734 24.571-3.627 39.2.241 3.19.604 6.113.805 6.495.202.382.367 1.269.367 1.971 0 .703.168 1.83.373 2.506.205.675.565 1.993.8 2.928 1.048 4.17 1.327 5.143 1.666 5.795.199.382.361 1.059.361 1.505 0 .446.159 1.123.353 1.505.195.382.555 1.19.8 1.795l.894 2.2c.245.605.605 1.413.8 1.795.194.382.353 1.057.353 1.5 0 .443.18.805.4.805.22 0 .4.234.4.52 0 .736.941 2.673 1.3 2.677.165.002.3.363.3.803 0 .44.18.8.4.8.22 0 .4.324.4.72 0 .396.163.891.362 1.1.2.209.723 1.03 1.163 1.825 1.59 2.873 1.879 3.358 2.115 3.555.132.11.474.65.76 1.2 3.066 5.905 16.068 20.21 22.157 24.377.464.317.933.7 1.043.85 1.179 1.61 15.466 9.919 20.811 12.104.984.402 2.149.88 2.589 1.061 1.598.659 5.237 1.962 6.8 2.435.88.266 1.96.625 2.4.798.44.173 1.34.426 2 .563.66.136 1.92.431 2.8.655 10.113 2.573 23.883 3.558 34 2.432 2.42-.27 5.3-.586 6.4-.703 1.1-.118 2.36-.373 2.8-.568.44-.195 1.52-.462 2.4-.595l3.103-.467c.826-.124 1.602-.387 1.723-.584.122-.197.603-.358 1.069-.358.901 0 3.244-.665 4.4-1.249a3.895 3.895 0 0 1 1.476-.351c.43 0 .893-.18 1.029-.4.136-.22.651-.4 1.144-.4.493 0 1.067-.143 1.276-.318.209-.175 1.1-.56 1.98-.854 3.094-1.036 14.774-6.603 19.283-9.191 2.157-1.239 10.565-6.787 10.917-7.204.11-.131.83-.711 1.6-1.29a47.246 47.246 0 0 0 2.247-1.798 48.489 48.489 0 0 1 2.159-1.745c.722-.55 1.799-1.45 2.392-2 6.151-5.696 5.297-5.449 8.034-2.322 1.192 1.363 2.528 2.851 2.968 3.307.44.457 2.15 2.356 3.8 4.22a632.6 632.6 0 0 0 3.4 3.824c.22.239 1.66 1.854 3.2 3.591a800.489 800.489 0 0 0 4.441 4.968 957.99 957.99 0 0 1 3.2 3.557c.857.96 2.189 2.417 2.959 3.238.77.82 2.39 2.617 3.6 3.992a517.292 517.292 0 0 0 3.518 3.961l1.318 1.46-3.118 3.012c-8.608 8.314-26.085 21.992-28.1 21.992-.23 0-.418.135-.418.301 0 .165-.855.747-1.9 1.294-1.045.546-2.133 1.216-2.419 1.489-.285.273-1.185.806-2 1.185-.814.379-1.571.789-1.681.911-.11.122-.74.491-1.4.82-.66.329-1.29.697-1.4.816-.248.271-10.28 5.204-13 6.394-4.734 2.07-5.505 2.384-8.8 3.59a167.89 167.89 0 0 0-3.2 1.199c-3.766 1.509-15.353 4.822-19.8 5.66-1.21.228-3.01.578-4 .776-7.034 1.412-11.571 1.994-17.2 2.207-2.53.096-4.973.364-5.428.596-2.202 1.118-28.045-.793-37.772-2.794-.99-.203-2.79-.554-4-.78-8.387-1.561-21.86-5.791-30.4-9.544-2.927-1.286-13.486-6.602-15.4-7.753-1.1-.661-2.315-1.305-2.7-1.431-.385-.126-.7-.388-.7-.583 0-.194-.236-.353-.525-.353-.288 0-.911-.36-1.383-.8-.472-.44-.962-.8-1.089-.8-.57 0-9.256-6.113-13.602-9.573-6.632-5.281-15.225-13.437-19.001-18.035A132.698 132.698 0 0 0 95.345 298c-3.293-3.673-11.221-14.911-13.968-19.8-3.372-6.001-7.262-13.804-8.626-17.3-.193-.495-.531-1.35-.751-1.9l-.8-2c-.979-2.447-1.316-3.245-1.647-3.895a3.88 3.88 0 0 1-.353-1.476c0-.43-.18-.893-.4-1.029-.22-.136-.4-.676-.4-1.2 0-.524-.18-1.064-.4-1.2-.22-.136-.4-.676-.4-1.2 0-.524-.18-1.064-.4-1.2-.22-.136-.4-.766-.4-1.4 0-.634-.18-1.264-.4-1.4-.22-.136-.4-.766-.4-1.4 0-.634-.18-1.264-.4-1.4-.22-.136-.4-.856-.4-1.6 0-.744-.161-1.452-.358-1.574-.197-.121-.455-.897-.574-1.723a64.295 64.295 0 0 0-.646-3.503c-4.233-19.702-4.231-44.421.006-64.4.233-1.1.521-2.676.64-3.503.119-.826.377-1.602.574-1.723.197-.122.358-.83.358-1.574 0-.744.18-1.464.4-1.6.22-.136.4-.689.4-1.229 0-.54.162-1.294.359-1.676.197-.382.759-2.045 1.248-3.695.901-3.043 1.402-4.44 2.04-5.695.194-.382.353-.885.353-1.119 0-.234.36-1.17.8-2.08.44-.911.8-1.982.8-2.381 0-.399.18-.725.4-.725.22 0 .4-.272.4-.605 0-.333.164-.918.364-1.3.2-.382 1.734-3.485 3.408-6.895 4.465-9.094 13.088-22.733 16.724-26.451.295-.302.807-.941 1.138-1.421 3.9-5.651 19.672-20.59 27.166-25.729.77-.528 1.49-1.075 1.6-1.215.416-.528 8.792-5.984 9.187-5.984.227 0 .413-.159.413-.353 0-.195.315-.46.7-.589.385-.13 1.24-.56 1.9-.956 5.39-3.233 10.266-5.769 15.6-8.113 1.1-.483 2.9-1.285 4-1.782 2.083-.94 10.135-3.83 13.6-4.88 1.1-.334 2.413-.769 2.919-.967.505-.198 1.35-.36 1.876-.36.527 0 1.057-.16 1.178-.356.121-.195.806-.452 1.523-.571a47.886 47.886 0 0 0 3.104-.666c4.483-1.123 8.95-2.012 11.4-2.27 1.1-.116 2.171-.374 2.38-.574.209-.2 1.503-.363 2.876-.363s2.608-.18 2.744-.4c.136-.22 1.722-.413 3.524-.428 1.802-.016 3.636-.186 4.076-.38 1.069-.469 27.89-.171 32.2.359m-3 75.58c1.32.226 3.259.539 4.309.693 1.05.155 2.006.438 2.124.629.118.191.596.347 1.062.347.901 0 3.244.665 4.4 1.249a3.895 3.895 0 0 0 1.476.351c.43 0 .893.18 1.029.4.136.22.58.4.986.4s1.43.336 2.276.747c.846.41 2.32 1.13 3.276 1.6.956.469 1.991.853 2.3.853.309 0 .562.138.562.306 0 .168.675.612 1.5.988 1.916.871 3.652 1.917 4.658 2.806.436.385.947.7 1.134.7.188 0 .559.183.825.407.266.224 2.009 1.527 3.874 2.895 10.49 7.696 20.581 21.043 25.173 33.298.495 1.32 1.066 2.713 1.268 3.095.202.382.368 1.046.368 1.476 0 .43.18.893.4 1.029.22.136.4.766.4 1.4 0 .634.18 1.264.4 1.4.22.136.4.831.4 1.544 0 .713.163 1.467.361 1.676.199.209.462 1.19.585 2.18.123.99.448 3.42.723 5.4.815 5.873.508 20.95-.471 23.2-.192.44-.456 1.52-.589 2.4l-.467 3.103c-.124.826-.387 1.602-.584 1.723-.197.122-.358.663-.358 1.203s-.171 1.294-.381 1.676c-.21.382-.769 1.865-1.242 3.295-6.381 19.267-22.388 36.213-42.777 45.287-.99.44-2.113.961-2.495 1.157-.382.196-1.057.356-1.5.356-.443 0-.805.18-.805.4 0 .22-.302.4-.672.4-.752 0-3.161.713-4.223 1.249-.382.193-1.201.351-1.82.351s-1.296.162-1.505.359c-.209.197-1.19.472-2.18.61-.99.138-2.97.436-4.4.664-6.929 1.101-18.221.887-25.6-.484-3.635-.675-8.311-1.877-9.295-2.388-.382-.199-.969-.361-1.305-.361-.336 0-.923-.159-1.305-.353-.716-.364-2.341-1.058-4.095-1.747a23.472 23.472 0 0 1-1.695-.747c-.382-.194-.967-.353-1.3-.353-.333 0-.605-.18-.605-.4 0-.22-.345-.4-.767-.4-.421 0-.826-.135-.9-.3-.073-.165-1.303-.912-2.733-1.661-8.201-4.292-24.8-18.951-24.8-21.901 0-.259-.149-.531-.33-.605-.446-.179-4.47-6.196-4.47-6.682 0-.211-.143-.444-.318-.518-.41-.171-4.229-8.036-4.921-10.133-.29-.88-.638-1.78-.772-2-.135-.22-.478-1.21-.763-2.2-.284-.99-.663-2.16-.841-2.6-.179-.44-.438-1.34-.576-2-.139-.66-.405-1.92-.593-2.8-1.784-8.377-2.35-20.657-1.262-27.4.809-5.012 1.867-9.961 2.437-11.4.175-.44.551-1.61.835-2.6.285-.99.64-1.98.788-2.2.148-.22.515-1.255.815-2.3.3-1.045.686-1.9.858-1.9.172 0 .313-.256.313-.569 0-.527 3.118-6.982 3.59-7.431.115-.11.407-.56.648-1 1.099-2.011 1.611-2.815 2.262-3.555.385-.438.7-1.032.7-1.32 0-.289.141-.525.314-.525.172 0 .629-.533 1.014-1.185s.919-1.422 1.186-1.71c.267-.288 1.471-1.69 2.675-3.115 5.451-6.451 15.838-14.923 21.111-17.219.715-.312 1.3-.702 1.3-.869 0-.166.36-.302.8-.302.44 0 .8-.18.8-.4 0-.22.36-.4.8-.4.44 0 .8-.18.8-.4 0-.22.36-.4.8-.4.44 0 .8-.18.8-.4 0-.22.272-.4.605-.4.333 0 .918-.159 1.3-.353a32.261 32.261 0 0 1 1.895-.847c.66-.271 1.513-.652 1.895-.847a3.88 3.88 0 0 1 1.476-.353c.43 0 .893-.18 1.029-.4.136-.22.766-.4 1.4-.4.634 0 1.252-.16 1.373-.356.121-.195.806-.456 1.523-.578a87.018 87.018 0 0 0 3.304-.664c1.1-.243 3.236-.604 4.747-.803 1.511-.198 2.856-.468 2.987-.6.379-.379 18.004.075 20.666.532"/><path fill="#f8a857" d="M121.5 1.1c42.955.056 113.245.056 156.2 0 42.955-.056 7.81-.102-78.1-.102s-121.055.046-78.1.102m-80.2.376c.385.1 1.015.1 1.4 0 .385-.101.07-.183-.7-.183s-1.085.082-.7.183m-2.8.4c.385.1 1.015.1 1.4 0 .385-.101.07-.183-.7-.183s-1.085.082-.7.183m320.4 0c.385.1 1.015.1 1.4 0 .385-.101.07-.183-.7-.183s-1.085.082-.7.183m3.1.482c2.4.837 5.336 1.64 5.477 1.498.203-.202-3.294-1.313-5.077-1.612-1.109-.186-1.192-.162-.4.114m8.033 2.591c.412.368 2.767 1.451 2.767 1.272 0-.231-2.218-1.421-2.647-1.421-.157 0-.211.067-.12.149M21.926 8.361c-1.007.638-1.962 1.373-2.123 1.633-.16.26.718-.198 1.953-1.017C23.743 7.658 24.289 7.2 23.878 7.2c-.067 0-.945.522-1.952 1.161M374.8 7.39c0 .104.585.475 1.3.824l1.3.634-1-.815c-.963-.785-1.6-1.041-1.6-.643m9.583 7.11c1.658 1.766 2.017 2.084 2.017 1.783 0-.064-.855-.919-1.9-1.9l-1.9-1.783 1.783 1.9m2.017 2.425c0 .069.573.654 1.274 1.3l1.275 1.175-.975-1.278c-.827-1.085-1.574-1.653-1.574-1.197M8.165 21.811c-.592.776-.988 1.5-.879 1.608.108.109.676-.526 1.261-1.411 1.313-1.984 1.075-2.107-.382-.197M2.417 33.949c-.505 1.512-.819 2.997-.699 3.3.144.363.23.287.25-.222.018-.426.409-1.834.869-3.13.46-1.296.76-2.433.667-2.526-.093-.093-.582 1.067-1.087 2.578M396.868 36c.02 1.039.65 2.746.664 1.8.006-.44-.143-1.16-.332-1.6-.211-.49-.339-.568-.332-.2M.901 40.6c.004.88.086 1.193.182.695.096-.497.092-1.217-.008-1.6-.1-.382-.179.025-.174.905m396.987.8c.123 1.32.288 2.475.368 2.567.279.322.06-2.979-.263-3.967-.204-.621-.244-.091-.105 1.4M.3 42.628c-.165.168-.3.851-.3 1.519 0 .867.123 1.09.431.782.237-.237.372-.921.3-1.519-.072-.598-.266-.949-.431-.782m205.5 4.19c-.511.231.282.274 2.2.12 1.65-.133 3.075-.309 3.167-.39.36-.32-4.616-.07-5.367.27m23.833-.267c.092.083 1.427.26 2.967.394 1.824.158 2.521.116 2-.123-.754-.345-5.324-.594-4.967-.271m-31.449 1.075c-.179.289.228.336 1.277.146 2.042-.369 2.194-.572.429-.572-.793 0-1.561.191-1.706.426m40.649-.279c.092.081.887.267 1.767.415 1.146.192 1.43.152 1-.141-.54-.368-3.168-.628-2.767-.274M192.6 48.4c-.295.478.489.478 1.6 0 .714-.307.685-.347-.276-.372-.592-.015-1.188.152-1.324.372m52.233-.256c.092.079.707.264 1.367.412.876.196 1.038.159.6-.138-.54-.365-2.368-.62-1.967-.274M188 49.2c-.795.514.204.514 1.4 0l.8-.344-.8-.022c-.44-.012-1.07.153-1.4.366m62.2 0c1.101.473 1.492.473 1.2 0-.136-.22-.642-.387-1.124-.372-.845.027-.847.041-.076.372m-66.2.818c-.438.297-.276.334.6.138 1.471-.329 1.79-.558.767-.55-.422.003-1.037.189-1.367.412M254.2 50c.44.189 1.07.344 1.4.344.378 0 .304-.127-.2-.344-.44-.189-1.07-.344-1.4-.344-.378 0-.304.127.2.344m144.398 152.4c0 83.93.046 118.265.102 76.3.056-41.965.056-110.635 0-152.6-.056-41.965-.102-7.63-.102 76.3M156.523 58.145c-2.825 1.191-3.269 1.739-.523.647 3.651-1.453 3.837-1.542 3.2-1.532-.33.005-1.535.404-2.677.885m125.847.469c1.853.759 3.435 1.314 3.515 1.234.18-.179-5.93-2.66-6.485-2.633-.22.011 1.116.641 2.97 1.399m-130.67 1.62c-.715.312-1.3.66-1.3.773 0 .208 2.806-.88 3.146-1.22.34-.34-.526-.13-1.846.447m-3.6 1.6c-.715.312-1.3.66-1.3.773 0 .208 2.806-.88 3.146-1.22.34-.34-.526-.13-1.846.447m-8.589 4.326c-2.324 1.381-2.329 1.646-.011.481 1.155-.58 2.1-1.141 2.1-1.248 0-.344-.571-.135-2.089.767m159.689.262c.33.225 1.32.782 2.2 1.237 1.969 1.02 1.376.335-.712-.821-1.56-.864-2.551-1.141-1.488-.416m6.8 3.768c0 .104.585.475 1.3.824l1.3.634-1-.815c-.963-.785-1.6-1.041-1.6-.643m17.6 11.898c0 .078.855.845 1.9 1.704s1.54 1.148 1.1.642c-.778-.895-3-2.632-3-2.346m-212.8 4.345l-3 2.832 3.1-2.7c2.781-2.422 3.332-2.966 3-2.964-.055 0-1.45 1.274-3.1 2.832m216.8-1.144c0 .088 2.25 2.208 5 4.711 5.356 4.875 5.414 4.966 4.2 6.509-1.154 1.468-.986 1.774.2.364 1.479-1.757 1.348-2.027-2.9-5.966-4.15-3.848-6.5-5.88-6.5-5.618M104 92.6c-1.86 1.87-3.247 3.4-3.082 3.4.266 0 1.701-1.412 5.657-5.566 2.515-2.641.629-1.055-2.575 2.166m-4.625 5.1L98.2 99l1.3-1.175c1.212-1.095 1.484-1.425 1.175-1.425-.069 0-.654.585-1.3 1.3m120.125.995c1.155.081 3.045.081 4.2 0 1.155-.081.21-.147-2.1-.147s-3.255.066-2.1.147m-10.3.505c-.916.293-.883.323.4.354.77.019 1.67-.141 2-.354.754-.487-.878-.487-2.4 0m22 0c.33.213 1.14.373 1.8.354 1.176-.033 1.18-.04.2-.354-1.53-.49-2.758-.49-2 0m-27.6.8c-.804.257-.843.323-.2.332.44.006 1.16-.143 1.6-.332 1.019-.438-.032-.438-1.4 0m33.2-.006c.33.217 1.035.397 1.567.4 1.284.008.958-.219-.767-.536-.985-.181-1.222-.14-.8.136m96.801.604c-.515.55-.862 1.066-.769 1.148.092.082.587-.368 1.098-.999 1.146-1.412.944-1.503-.329-.149m-237.801.927c-1.434 1.673-2.306 2.875-2.085 2.875.26 0 3.585-4.036 3.428-4.161-.078-.063-.683.516-1.343 1.286m100 .075c-.771.331-.769.345.076.372.482.015.988-.152 1.124-.372.292-.473-.099-.473-1.2 0m-103.214 3.778c-.212.297-.803 1.098-1.313 1.781-.51.682-.855 1.241-.767 1.241.283 0 2.78-3.247 2.62-3.407-.085-.085-.328.088-.54.385M88 111.6c-.47.66-.764 1.2-.654 1.2.11 0 .584-.54 1.054-1.2.47-.66.764-1.2.654-1.2-.11 0-.584.54-1.054 1.2m81.4.8c-.66.437-1.02.792-.8.788.401-.006 2.576-1.565 2.2-1.576-.11-.004-.74.351-1.4.788m101.6-.479c.22.222 1.086.784 1.926 1.249.839.465 2.009 1.133 2.6 1.485l1.074.64-.992-.819c-1.087-.896-5.254-3.208-4.608-2.555m-106.8 3.704c-1.32.893-2.67 1.903-3 2.246-.552.573 4.518-2.752 5.38-3.529.858-.772-.121-.245-2.38 1.283M84.321 117.1c-2.142 3.26-2.406 3.7-2.22 3.7.175 0 .74-.805 2.877-4.1.393-.605.627-1.1.521-1.1-.106 0-.636.675-1.178 1.5m235.223 1.2c-1.151 1.389-1.638 2.1-1.44 2.1.11 0 .682-.63 1.269-1.4 1.09-1.429 1.222-1.968.171-.7m-160.759 1.329l-1.385 1.229 1.5-1.077c1.326-.951 1.757-1.381 1.385-1.381-.063 0-.738.553-1.5 1.229m-2.964 2.187c-.63.541-.982.978-.783.971.494-.018 2.318-1.564 2.101-1.781-.095-.096-.689.269-1.318.81m160.05 1.03c-.841 1.074-1.448 1.954-1.348 1.954.282 0 3.185-3.627 3.022-3.776-.08-.073-.833.747-1.674 1.822m-234.857-.611c-.373.569-.587 1.126-.475 1.237.111.111.49-.354.842-1.035.778-1.504.563-1.622-.367-.202m132.586.149c-.55.167.53.215 2.4.106 1.87-.108 3.475-.263 3.567-.344.315-.276-4.968-.066-5.967.238m12.833-.238c.092.081 1.697.241 3.567.356 1.927.118 3.053.067 2.6-.118-.77-.316-6.507-.536-6.167-.238m-18.033 1.066c-.419.279-.058.321 1.2.138 2.241-.325 2.56-.552.767-.544-.752.003-1.637.186-1.967.406m26.033-.268c.092.079 1.067.247 2.167.374 1.287.149 1.715.108 1.2-.115-.764-.331-3.714-.558-3.367-.259m-81.458 1.556l-1.175 1.3 1.3-1.175c1.212-1.095 1.484-1.425 1.175-1.425-.069 0-.654.585-1.3 1.3m51.825-.494c-.422.276-.185.317.8.136 1.725-.317 2.051-.544.767-.536-.532.003-1.237.183-1.567.4m34.4-.251c0 .085.53.232 1.179.327.648.095 1.088.026.976-.154-.198-.321-2.155-.478-2.155-.173m3.233.789c.092.079.707.264 1.367.412.876.196 1.038.159.6-.138-.54-.365-2.368-.62-1.967-.274m69.928 2.756a443.673 443.673 0 0 1-2.299 2.8c-.322.385-.488.7-.369.7s1.235-1.26 2.479-2.8c1.244-1.54 2.181-2.8 2.082-2.8-.099 0-.951.945-1.893 2.1m-17.561 1.571c0 .331 7.682 7.98 7.848 7.814.069-.069-1.668-1.913-3.861-4.098-2.193-2.185-3.987-3.857-3.987-3.716M143.657 134.1c-1.533 1.815-2.709 3.379-2.613 3.476.096.097.458-.229.804-.723.346-.494 1.613-2.058 2.816-3.476 1.202-1.417 2.095-2.577 1.984-2.577-.111 0-1.457 1.485-2.991 3.3m164.902-2c-1.752 2.021-2.272 2.7-2.069 2.7.117 0 .877-.81 1.689-1.8 1.502-1.834 1.8-2.537.38-.9m-168.455 6.4c-1.256 1.593-3.306 4.748-2.936 4.52.475-.294 3.767-5.02 3.496-5.02-.091 0-.343.225-.56.5m132.696 1.225c0 .069.585.654 1.3 1.3l1.3 1.175-1.175-1.3c-1.095-1.212-1.425-1.484-1.425-1.175M170 142.481c-1.21 1.125-1.66 1.674-1 1.219 1.139-.785 3.746-3.32 3.375-3.282-.096.01-1.165.939-2.375 2.063m105.638.019c.094.055.889.73 1.766 1.5l1.596 1.4-1.378-1.5c-.759-.825-1.554-1.5-1.767-1.5-.214 0-.311.045-.217.1m-140.585 3.6l-.72 1.3.825-1c.731-.887 1.056-1.6.728-1.6-.062 0-.437.585-.833 1.3m29.365 2.034l-1.381 1.666 1.681-1.581c.925-.87 1.682-1.635 1.682-1.7 0-.46-.806.197-1.982 1.615m118.393 1.766c2.299 2.551 2.613 2.85 1.951 1.861-.851-1.271-3.103-3.761-3.401-3.761-.144 0 .508.855 1.45 1.9m5.026 6.6c.812 1.265 1.551 2.3 1.642 2.3.268 0-1.179-2.318-2.189-3.506-.511-.602-.265-.059.547 1.206m-221.57-.233c-.147.146-.256.641-.242 1.1.024.766.057.756.409-.125.392-.979.31-1.453-.167-.975m-.8 2.8c-.147.146-.252.731-.233 1.3.034 1.014.041 1.012.387-.147.364-1.217.31-1.618-.154-1.153M291 161.6c.341.66.711 1.2.821 1.2.11 0-.08-.54-.421-1.2-.341-.66-.711-1.2-.821-1.2-.11 0 .08.54.421 1.2m-226.446.977c-.122.317-.151.902-.065 1.3.098.451.235.235.365-.577.217-1.362.076-1.704-.3-.723m88.027 3.06c-.352.681-.569 1.308-.482 1.395.087.087.457-.47.823-1.237.822-1.725.537-1.857-.341-.158m-88.732.178c-.137.358-.228 1.131-.203 1.718.034.799.124.665.358-.533.331-1.7.258-2.26-.155-1.185m-.956 5.385c0 .77.082 1.085.183.7.1-.385.1-1.015 0-1.4-.101-.385-.183-.07-.183.7m-.637 2.884c-.135.504-.225 1.546-.201 2.316.034 1.069.12.88.363-.798.335-2.31.254-3.069-.162-1.518m85.993 2.131a3.854 3.854 0 0 0-.215 1.318c.019.367.193.136.387-.513.377-1.262.244-1.887-.172-.805m-25.649.585c-.15.473-.183.95-.073 1.06.11.11.323-.187.473-.66.15-.473.183-.95.073-1.06-.11-.11-.323.187-.473.66m-61.147 2.836c-.139.695-.229 2.097-.199 3.114.043 1.459.121 1.216.368-1.149.331-3.17.253-4.076-.169-1.965m60.397 1.214c-.333 1.667-.01 1.99.35.35.152-.691.193-1.341.091-1.442-.102-.102-.3.389-.441 1.092m24.806.834c-.135.504-.229 1.276-.21 1.716.019.44.199.098.4-.76.39-1.662.224-2.5-.19-.956M60.893 186.4c0 .77.082 1.085.183.7.1-.385.1-1.015 0-1.4-.101-.385-.183-.07-.183.7m60.16.036c-.139.695-.228 2.187-.197 3.314.047 1.708.107 1.517.362-1.15.323-3.381.256-4.268-.165-2.164m24.607.414a32.862 32.862 0 0 1-.259 2.4l-.198 1.35.421-1.343c.231-.738.348-1.818.258-2.4l-.162-1.057-.06 1.05m154.584.95c.329 1.471.558 1.79.55.767-.003-.422-.189-1.037-.412-1.367-.297-.438-.334-.276-.138.6M60.572 199.2c0 5.17.057 7.285.127 4.7.069-2.585.069-6.815 0-9.4-.07-2.585-.127-.47-.127 4.7m84.365-5c.002 1.76.072 2.43.156 1.489.085-.94.084-2.38-.002-3.2-.086-.819-.155-.049-.154 1.711M301 200.142c0 4.345.117 7.486.26 6.979.333-1.177.327-12.141-.007-13.701-.139-.649-.253 2.376-.253 6.722m-156.466.258c0 1.65.071 2.325.157 1.5.087-.825.087-2.175 0-3-.086-.825-.157-.15-.157 1.5m.403 6.2c.002 1.76.072 2.43.156 1.489.085-.94.084-2.38-.002-3.2-.086-.819-.155-.049-.154 1.711m-24.09 1.033c.026 1.192.186 2.707.355 3.367.174.681.216-.185.096-2-.243-3.701-.52-4.542-.451-1.367m24.63 4.567c.123 1.32.291 2.475.373 2.567.268.297.065-2.533-.27-3.767-.215-.789-.25-.378-.103 1.2m-84.584.2c0 .77.082 1.085.183.7.1-.385.1-1.015 0-1.4-.101-.385-.183-.07-.183.7m239.567-.533a7.271 7.271 0 0 1-.319 1.6c-.199.564-.146.629.231.282.27-.248.413-.968.319-1.6-.121-.81-.189-.893-.231-.282m-239.22 4.566c.022 1.412.177 3.017.344 3.567.167.55.215-.53.106-2.4-.236-4.066-.506-4.764-.45-1.167m85.166 1.2c.003.532.183 1.237.4 1.567.276.422.317.185.136-.8-.317-1.725-.544-2.051-.536-.767m.794 3.343c0 .537.147 1.068.328 1.179.18.112.249-.328.154-.976-.21-1.43-.482-1.544-.482-.203M62.038 222.8c-.014.99.132 2.049.325 2.354.216.341.278-.196.161-1.4-.264-2.709-.456-3.087-.486-.954m61.174 0c0 .33.175.87.388 1.2.345.533.388.533.388 0 0-.33-.175-.87-.388-1.2-.345-.533-.388-.533-.388 0m24.828.4c-.032.69.884 3.457 1.274 3.847.24.241-.068-.926-.911-3.447-.184-.55-.347-.73-.363-.4m-85.212 4.433c.016.752.184 1.727.375 2.167.223.515.264.087.115-1.2-.274-2.378-.529-2.881-.49-.967m.778 4.2c.003.642.178 1.437.389 1.767.26.409.304.09.137-1-.303-1.977-.534-2.314-.526-.767m1.594 7.077c0 .573.187 1.158.416 1.3.273.169.322-.133.144-.876-.368-1.533-.56-1.678-.56-.424m225.8.29c-.341.66-.531 1.2-.421 1.2.11 0 .48-.54.821-1.2.341-.66.531-1.2.421-1.2-.11 0-.48.54-.821 1.2m-2.806 4.5c-2.478 3.788-6.624 8.737-10.79 12.881-3.674 3.654-3.874 3.908-1.204 1.529 4.362-3.887 11.191-11.929 13.001-15.312.749-1.399.144-.858-1.007.902M160.022 247c.005.529 1.12 1.991 1.347 1.765.097-.097-.167-.624-.587-1.171-.421-.547-.762-.814-.76-.594m3.084 4c.457.66 1.784 2.1 2.95 3.2l2.12 2-2.358-2.6c-3.247-3.58-3.672-3.987-2.712-2.6m-23.728 6.644c.993 1.455 2.105 2.893 2.47 3.196.365.303-.036-.415-.892-1.595-2.457-3.388-3.572-4.519-1.578-1.601m32.214 1.897c1.426 1.324 2.671 2.329 2.767 2.234.096-.096.099-.223.008-.281-.092-.059-1.337-1.064-2.767-2.234l-2.6-2.128 2.592 2.409M271 262.244l-1.6 1.432 1.7-1.272c1.463-1.094 1.991-1.621 1.6-1.598-.055.003-.82.65-1.7 1.438m-96.2-.119c0 .099.661.684 1.468 1.3.808.616 1.343.916 1.188.666-.316-.512-2.656-2.244-2.656-1.966m128.4 1.519c-.494.355-.466.388.158.184.452-.147 1.098.039 1.6.462l.842.71-.762-.9c-.864-1.021-1.005-1.056-1.838-.456m-2.727 2.406c-.95.896-1.668 1.688-1.597 1.76.072.071.974-.666 2.004-1.64 1.03-.973 1.749-1.765 1.597-1.76-.152.006-1.054.743-2.004 1.64m6.527.75c.859.88 1.637 1.6 1.728 1.6.337 0-2.542-3.134-2.909-3.166-.21-.019.322.686 1.181 1.566m2.2 2.195c0 .138 1.53 1.946 3.4 4.016 1.87 2.071 3.4 3.659 3.4 3.53s-1.305-1.698-2.9-3.486c-3.743-4.196-3.9-4.359-3.9-4.06M79.4 274.8c.341.66.711 1.2.821 1.2.11 0-.08-.54-.421-1.2-.341-.66-.711-1.2-.821-1.2-.11 0 .08.54.421 1.2M243 276c-.771.331-.769.345.076.372.482.015.988-.152 1.124-.372.292-.473-.099-.473-1.2 0m-37.8.782c.33.223.945.409 1.367.412 1.023.008.704-.221-.767-.55-.876-.196-1.038-.159-.6.138m34.6.018c-.771.331-.769.345.076.372.482.015.988-.152 1.124-.372.292-.473-.099-.473-1.2 0m-30.8.781c.768.348 2.91.575 2.567.272-.092-.081-.887-.257-1.767-.391-1.115-.169-1.358-.133-.8.119m26.8.019c-1.107.282-1.123.309-.2.347.55.022 1.27-.134 1.6-.347.681-.44.329-.44-1.4 0m-21.177.853c1.557.334 15.718.34 16.901.007.508-.143-3.352-.26-8.578-.26-5.225 0-8.971.114-8.323.253m103.606.785c.644.791 1.252 1.37 1.35 1.287.099-.083-.428-.73-1.17-1.438l-1.351-1.287 1.171 1.438m-235.732.862c.324.495 1.17 1.845 1.88 3 1.289 2.095 2.08 2.906 1.172 1.2-.765-1.438-3.244-5.1-3.452-5.1-.104 0 .076.405.4.9m79.903.256c.77.66 2.12 1.597 3 2.084 2.19 1.212 1.714.79-1.6-1.418-1.666-1.11-2.233-1.38-1.4-.666m157.6.699c0 .213.675 1.008 1.5 1.767l1.5 1.378-1.4-1.596c-.77-.877-1.445-1.672-1.5-1.766-.055-.094-.1.003-.1.217m-43 2.145c-.66.437-1.02.792-.8.788.401-.006 2.576-1.565 2.2-1.576-.11-.004-.74.351-1.4.788m-3 1.6c-.77.422-1.256.774-1.08.783.424.022 2.68-1.151 2.68-1.393 0-.262-.023-.253-1.6.61m49.6.525c0 .069.585.654 1.3 1.3l1.3 1.175-1.175-1.3c-1.095-1.212-1.425-1.484-1.425-1.175M88.01 288.5c1.11 1.595 2.662 3.62 3.45 4.5l1.431 1.6-1.363-1.8c-.75-.99-2.22-3.015-3.266-4.5-1.046-1.485-1.985-2.7-2.086-2.7-.101 0 .725 1.305 1.834 2.9m90.044.887c.336.336 3.146 1.429 3.146 1.224 0-.11-.652-.473-1.449-.806-1.476-.616-2.033-.754-1.697-.418m6.572 2.778c2.018.879 3.3 1.094 1.574.264-.88-.423-1.87-.776-2.2-.784-.33-.007-.048.227.626.52m146.174 1.16c0 .069.573.654 1.274 1.3l1.275 1.175-.975-1.278c-.827-1.085-1.574-1.653-1.574-1.197M93.233 295.4c.875 1.283 3.168 3.831 3.152 3.501-.009-.165-.844-1.201-1.856-2.301-1.013-1.1-1.596-1.64-1.296-1.2m100-.456c.092.079.707.264 1.367.412.876.196 1.038.159.6-.138-.54-.365-2.368-.62-1.967-.274m3.2.8c.092.079.707.264 1.367.412.876.196 1.038.159.6-.138-.54-.365-2.368-.62-1.967-.274M244 296c-.764.494.058.494 1.6 0l1-.32-1-.034c-.55-.019-1.27.141-1.6.354m90.648 1.6c.814.88 1.55 1.6 1.635 1.6.085 0-.424-.72-1.131-1.6-.707-.88-1.443-1.6-1.635-1.6-.192 0 .317.72 1.131 1.6m-133.848-.8c1.542.494 2.364.494 1.6 0-.33-.213-1.05-.373-1.6-.354l-1 .034 1 .32m39.39.016c-.169.273.133.322.876.144 1.533-.368 1.678-.56.424-.56-.573 0-1.158.187-1.3.416m-35.757.531c.092.081.887.267 1.767.415 1.146.192 1.43.152 1-.141-.54-.368-3.168-.628-2.767-.274m30.967.272c-.558.252-.315.288.8.119.88-.134 1.675-.31 1.767-.391.343-.303-1.799-.076-2.567.272m-23.2.799c2.864.447 5.531.412 3-.038-.99-.177-2.52-.31-3.4-.297-1.559.023-1.548.032.4.335m15.4.004c-.865.195-.177.233 1.8.098 1.76-.119 3.275-.285 3.367-.369.294-.267-3.718-.057-5.167.271m110.212 2.761c.261.872-.196 1.453-4.059 5.153-3.099 2.969-3.431 3.358-1.153 1.351 5.535-4.875 6.257-5.747 5.533-6.687-.597-.776-.607-.77-.321.183m-238.603 1.391c1.682 1.993 3.636 3.914 3.807 3.743.09-.089-.953-1.232-2.317-2.54-1.365-1.307-2.035-1.849-1.49-1.203m11.963 11.726c1.885 1.814 3.564 3.299 3.729 3.3.166 0-.464-.665-1.4-1.477a370.945 370.945 0 0 1-3.729-3.3c-1.116-1.003-.486-.338 1.4 1.477m213.628-.248c-4.585 3.855-5.46 4.744-2.187 2.225 3.351-2.581 6.718-5.483 6.32-5.448-.183.016-2.043 1.467-4.133 3.223m-6.415 5.18L317 320.463l1.288-.85c1.142-.754 2.005-1.613 1.62-1.613-.076 0-.761.554-1.523 1.232m-3.2 2.397l-1.385 1.229 1.5-1.077c1.326-.951 1.757-1.381 1.385-1.381-.063 0-.738.553-1.5 1.229m-194.245.674c.156.253.851.864 1.544 1.357.693.494 1.133.69.976.437-.156-.253-.851-.864-1.544-1.357-.693-.494-1.133-.69-.976-.437m27.86 16.68c0 .241 2.463 1.417 2.961 1.415.242-.002-.011-.236-.561-.522-1.328-.689-2.4-1.088-2.4-.893m133 1.395c-.88.417-1.487.772-1.349.79.389.05 3.149-1.154 3.149-1.373 0-.268-.001-.268-1.8.583m-129.2.333c.36.332 3.067 1.487 4.6 1.963.508.158.506.125-.015-.216-.917-.6-5.049-2.174-4.585-1.747m6.8 2.86c.88.423 1.87.776 2.2.784.686.016-1.361-.928-2.826-1.304-.536-.137-.254.097.626.52m113.6.243c-1.615.74-.649.741 1.054.002.74-.322 1.076-.577.746-.568-.33.009-1.14.264-1.8.566m-4.124 1.456c-1.389.448-2.452.888-2.362.977.213.213 4.373-1.082 4.866-1.514.489-.428.478-.426-2.504.537m-98.043 2.074c.092.079.707.264 1.367.412.876.196 1.038.159.6-.138-.54-.365-2.368-.62-1.967-.274m2.8.8c.092.079.707.264 1.367.412.876.196 1.038.159.6-.138-.54-.365-2.368-.62-1.967-.274m85.167.274c-.438.297-.276.334.6.138 1.471-.329 1.79-.558.767-.55-.422.003-1.037.189-1.367.412m-3 .782c-.504.217-.578.344-.2.344.33 0 .96-.155 1.4-.344.504-.217.578-.344.2-.344-.33 0-.96.155-1.4.344m-75 .8c1.368.438 2.419.438 1.4 0-.44-.189-1.16-.338-1.6-.332-.643.009-.604.075.2.332m71.8 0c-.504.217-.578.344-.2.344.33 0 .96-.155 1.4-.344.504-.217.578-.344.2-.344-.33 0-.96.155-1.4.344m-67.6.8c.44.189 1.07.344 1.4.344.378 0 .304-.127-.2-.344-.44-.189-1.07-.344-1.4-.344-.378 0-.304.127.2.344m63.6 0c-.504.217-.578.344-.2.344.33 0 .96-.155 1.4-.344.504-.217.578-.344.2-.344-.33 0-.96.155-1.4.344m-59.6.8c.44.189 1.16.338 1.6.332.643-.009.604-.075-.2-.332-1.368-.438-2.419-.438-1.4 0m55.4 0c-.795.514.204.514 1.4 0l.8-.344-.8-.022c-.44-.012-1.07.153-1.4.366m-50.4.8c.33.213 1.14.373 1.8.354 1.176-.033 1.18-.04.2-.354-1.53-.49-2.758-.49-2 0m45.4 0c-1.078.274-1.098.306-.2.313.55.004 1.45-.137 2-.313 1.344-.431-.108-.431-1.8 0m-38.8.786c.757.339 4.121.578 3.767.268-.092-.08-1.157-.254-2.367-.386-1.437-.156-1.922-.116-1.4.118m32.6.014l-1.8.28 1.6.054c.88.029 1.87-.121 2.2-.334.33-.213.42-.363.2-.334-.22.03-1.21.18-2.2.334m-21.4.8c1.145.492 12.896.492 13.2 0 .162-.261-2.222-.39-6.876-.372-4.352.017-6.813.162-6.324.372M0 356.176c0 .537.18 1.088.4 1.224.233.144.4-.263.4-.976 0-.673-.18-1.224-.4-1.224-.22 0-.4.439-.4.976m398.07 1.691c-.039.917-.174 1.997-.3 2.4-.217.689-.203.69.223.028.249-.388.384-1.468.3-2.4l-.153-1.695-.07 1.667M.893 360c0 .77.082 1.085.183.7.1-.385.1-1.015 0-1.4-.101-.385-.183-.07-.183.7m396.361 2.267a8.132 8.132 0 0 1-.284 1.6c-.218.694-.206.695.226.021.251-.391.379-1.111.285-1.6-.172-.887-.172-.887-.227-.021M1.606 363.633c.003.532.183 1.237.4 1.567.276.422.317.185.136-.8-.317-1.725-.544-2.051-.536-.767M5.615 374.2c.002.22.371.85.821 1.4.543.664.679.731.404.2-.674-1.305-1.228-2.028-1.225-1.6m1.585 2.938c0 .186.388.681.862 1.1l.862.762-.708-1.1c-.73-1.134-1.016-1.349-1.016-.762m2.391 3.25c.466.653 1.051 1.314 1.3 1.468.25.155-.05-.38-.666-1.188-1.337-1.753-1.841-1.976-.634-.28m4.597 5.2c1.743 1.753 3.223 3.134 3.289 3.069.149-.15-5.94-6.257-6.239-6.257-.12 0 1.207 1.435 2.95 3.188m366.197 3.641L379 390.458l1.5-1.077c1.326-.951 1.757-1.381 1.385-1.381-.063 0-.738.553-1.5 1.229m-361.585.534c0 .08.45.44 1 .8.55.361 1 .5 1 .31 0-.189-.45-.55-1-.8-.55-.251-1-.39-1-.31m17 8.237c.44.189 1.16.338 1.6.332.643-.009.604-.075-.2-.332-1.368-.438-2.419-.438-1.4 0m325.8 0c-.804.257-.843.323-.2.332.44.006 1.16-.143 1.6-.332 1.019-.438-.032-.438-1.4 0m-5.2.8l-2.2.27 2 .017c1.1.01 2.54-.119 3.2-.287 1.556-.396.231-.396-3 0m-314.7.287a8.899 8.899 0 0 0 2.2 0c.605-.092.11-.167-1.1-.167-1.21 0-1.705.075-1.1.167"/><path fill="#f9bc7d" d="M40 1.213c-.646.216-.22.253 1.2.106 1.21-.125 2.275-.293 2.367-.373.32-.281-2.576-.063-3.567.267M356.6 1.2c.66.168 1.65.305 2.2.305.892 0 .87-.033-.2-.305-.66-.168-1.65-.305-2.2-.305-.892 0-.87.033.2.305M36.2 2c-.504.217-.578.344-.2.344.33 0 .96-.155 1.4-.344.504-.217.578-.344.2-.344-.33 0-.96.155-1.4.344m324.633-.256c.092.079.707.264 1.367.412.876.196 1.038.159.6-.138-.54-.365-2.368-.62-1.967-.274M19.2 10.049c-1.394 1.222-1.395 1.223-.112.37.708-.471 1.394-1.028 1.524-1.238.385-.624.065-.427-1.412.868m360-.331c0 .102.847.879 1.881 1.727 1.035.848 1.753 1.333 1.595 1.078-.336-.544-3.476-3.078-3.476-2.805M13.792 14.9L10.2 18.6l3.7-3.592c3.436-3.336 3.882-3.808 3.592-3.808-.06 0-1.725 1.665-3.7 3.7m371.028-.279c.979 1.112 1.861 1.96 1.961 1.886.099-.074-.702-.984-1.78-2.021L383.04 12.6l1.78 2.021m3.218 3.556c.35.453.935 1.268 1.3 1.812.364.544.662.799.662.567 0-.233-.585-1.048-1.3-1.813-.715-.764-1.013-1.019-.662-.566M8.975 20.268c-.616.808-.916 1.343-.666 1.188.512-.316 2.244-2.656 1.966-2.656-.099 0-.684.661-1.3 1.468M5.4 26c-.341.66-.531 1.2-.421 1.2.11 0 .48-.54.821-1.2.341-.66.531-1.2.421-1.2-.11 0-.48.54-.821 1.2M1.05 37.65c-.333 1.667-.01 1.99.35.35.152-.691.193-1.341.091-1.442-.102-.102-.3.389-.441 1.092m396.618.75c.02 1.039.65 2.746.664 1.8.006-.44-.143-1.16-.332-1.6-.211-.49-.339-.568-.332-.2M.262 41.347c-.165.631-.206 1.242-.091 1.357.322.323.716-.966.544-1.781-.112-.533-.231-.422-.453.424M398.6 200.441c0 86.768.12 156.859.267 155.759.353-2.644.359-309.944.006-311.959-.15-.857-.273 69.433-.273 156.2M209.4 46.763c-1.1.13 3.76.237 10.8.237 7.04 0 11.9-.119 10.8-.265-2.437-.323-18.821-.302-21.6.028m-9.2.843c-.703.182.042.222 1.8.097 1.65-.118 3.075-.279 3.167-.359.308-.266-3.754-.053-4.967.262m35.905-.119c.609.092 1.509.09 2-.005.492-.095-.005-.171-1.105-.168-1.1.003-1.503.081-.895.173m-41.905.909c-.498.212.031.255 1.4.116 1.21-.123 2.275-.289 2.367-.368.344-.297-3-.074-3.767.252m48.233-.247c.092.082 1.067.252 2.167.379 1.349.156 1.674.121 1-.108-.999-.34-3.482-.552-3.167-.271M189.4 49.21c-.534.237-.202.276 1 .117.99-.131 1.875-.303 1.967-.383.347-.301-2.203-.072-2.967.266m57.833-.266c.092.08.977.252 1.967.383 1.202.159 1.534.12 1-.117-.764-.338-3.314-.567-2.967-.266M181.4 50.8c-.504.217-.578.344-.2.344.33 0 .96-.155 1.4-.344.504-.217.578-.344.2-.344-.33 0-.96.155-1.4.344m75.2 0c.44.189 1.07.344 1.4.344.378 0 .304-.127-.2-.344-.44-.189-1.07-.344-1.4-.344-.378 0-.304.127.2.344m-78.4.8c-.504.217-.578.344-.2.344.33 0 .96-.155 1.4-.344.504-.217.578-.344.2-.344-.33 0-.96.155-1.4.344m-6 1.6c-.504.217-.578.344-.2.344.33 0 .96-.155 1.4-.344.504-.217.578-.344.2-.344-.33 0-.96.155-1.4.344m117 8.6c.55.314 1.18.572 1.4.572.22 0-.05-.258-.6-.572-.55-.314-1.18-.572-1.4-.572-.22 0 .05.258.6.572M126.932 74.182c-2.454 1.64-4.571 3.157-4.703 3.371-.22.355 8.27-5.222 9.151-6.012 1.003-.899-.369-.085-4.448 2.641m181.442-2.258c.535.435 1.525 1.095 2.2 1.467l1.226.676-.974-.791c-.535-.435-1.525-1.095-2.2-1.467l-1.226-.676.974.791m8.426 5.422c0 .11.54.584 1.2 1.054.66.47 1.2.764 1.2.654 0-.11-.54-.584-1.2-1.054-.66-.47-1.2-.764-1.2-.654m-196.815 1.883l-1.385 1.229 1.5-1.077c1.326-.951 1.757-1.381 1.385-1.381-.063 0-.738.553-1.5 1.229M323.2 82.118c0 .102.847.879 1.881 1.727 1.035.848 1.753 1.333 1.595 1.078-.336-.544-3.476-3.078-3.476-2.805m-210.229 2.785l-1.171 1.294 1.2-.998c.66-.55 1.275-1.044 1.367-1.099.091-.055.078-.188-.029-.296-.108-.108-.723.387-1.367 1.099m214.229.422c0 .069.585.654 1.3 1.3l1.3 1.175-1.175-1.3c-1.095-1.212-1.425-1.484-1.425-1.175M109.781 87.7l-1.581 1.7 1.7-1.581c1.581-1.471 1.884-1.819 1.581-1.819-.065 0-.83.765-1.7 1.7M330 87.725c0 .069.585.654 1.3 1.3l1.3 1.175-1.175-1.3C330.33 87.688 330 87.416 330 87.725M106.575 90.5l-1.175 1.3 1.3-1.175c1.212-1.095 1.484-1.425 1.175-1.425-.069 0-.654.585-1.3 1.3M335.2 92.525c0 .069.585.654 1.3 1.3L337.8 95l-1.175-1.3c-1.095-1.212-1.425-1.484-1.425-1.175M98.8 98.6c-.972.99-1.677 1.8-1.567 1.8.11 0 .995-.81 1.967-1.8.972-.99 1.677-1.8 1.567-1.8-.11 0-.995.81-1.967 1.8m235.355.881c-.848 1.035-1.333 1.753-1.078 1.595.544-.336 3.078-3.476 2.805-3.476-.102 0-.879.847-1.727 1.881M219.7 98.294a29.38 29.38 0 0 0 3.8 0c1.045-.082.19-.15-1.9-.15s-2.945.068-1.9.15m-6.4.397c.825.087 2.175.087 3 0 .825-.086.15-.157-1.5-.157s-2.325.071-1.5.157m13.391-.002c.71.088 1.97.09 2.8.003.83-.087.249-.159-1.291-.161-1.54-.002-2.219.069-1.509.158M207 99.2l-1.6.286 1.4.017c.77.01 1.85-.127 2.4-.303 1.285-.412.099-.412-2.2 0m26.2-.02c.999.34 3.482.552 3.167.271-.092-.082-1.067-.252-2.167-.379-1.349-.156-1.674-.121-1 .108m-32.3 1.096c.385.1 1.015.1 1.4 0 .385-.101.07-.183-.7-.183s-1.085.082-.7.183m-2.9.524c-.804.257-.843.323-.2.332.44.006 1.16-.143 1.6-.332 1.019-.438-.032-.438-1.4 0m47.6.782c.33.223.945.409 1.367.412 1.023.008.704-.221-.767-.55-.876-.196-1.038-.159-.6.138m85.366 1.918c-2.969 3.687-4.462 5.731-2.994 4.1 1.709-1.899 4.923-6 4.703-6-.098 0-.867.855-1.709 1.9m-82.566-1.159c.33.193 1.14.468 1.8.611.768.166.984.132.6-.093-.33-.193-1.14-.468-1.8-.611-.768-.166-.984-.132-.6.093m-67.5 3.893c-.715.312-1.3.66-1.3.773 0 .208 2.806-.88 3.146-1.22.34-.34-.526-.13-1.846.447m-90.725 2.834c-.616.808-.916 1.343-.666 1.188.512-.316 2.244-2.656 1.966-2.656-.099 0-.684.661-1.3 1.468m83.325.758c-1.045.544-1.9 1.079-1.9 1.188 0 .11.9-.257 2-.814 1.1-.557 2-1.1 2-1.207 0-.264.036-.279-2.1.833M86.887 113.7c-1.46 2.156-1.775 2.7-1.567 2.7.092 0 .824-.99 1.627-2.2.804-1.21 1.378-2.2 1.276-2.2-.101 0-.703.765-1.336 1.7m80.213-.271c-1.495.811-1.404 1.149.1.371.66-.341 1.2-.706 1.2-.81 0-.258-.043-.243-1.3.439m155.459.671c-1.752 2.021-2.272 2.7-2.069 2.7.117 0 .877-.81 1.689-1.8 1.502-1.834 1.8-2.537.38-.9m-46.534.437c.191.209 3.899 2.652 5.475 3.607 1.445.876.206-.226-1.6-1.422-2.15-1.425-4.277-2.624-3.875-2.185M160.4 118.049c-1.394 1.222-1.395 1.223-.112.37.708-.471 1.394-1.028 1.524-1.238.385-.624.065-.427-1.412.868m60.912 4.246c1.052.082 2.672.081 3.6-.003.928-.084.068-.151-1.912-.15-1.98.001-2.74.07-1.688.153m-71.735 5.13c-6.521 6.559-6.586 6.77-.177.575 2.845-2.75 5.254-5.045 5.353-5.1.099-.055.095-.186-.01-.29-.104-.105-2.429 2.062-5.166 4.815M213 122.8l-1.6.286 1.4.01c.77.005 1.94-.128 2.6-.296 1.628-.414-.087-.414-2.4 0m19.5.276c.385.1 1.015.1 1.4 0 .385-.101.07-.183-.7-.183s-1.085.082-.7.183m4.1.505c.768.348 2.91.575 2.567.272-.092-.081-.887-.257-1.767-.391-1.115-.169-1.358-.133-.8.119m77.155 1.5c-.848 1.035-1.333 1.753-1.078 1.595.544-.336 3.078-3.476 2.805-3.476-.102 0-.879.847-1.727 1.881M204.4 124.4c-.824.264-.859.326-.2.354.44.019 1.07-.141 1.4-.354.701-.453.214-.453-1.2 0m36.2 0c.44.189 1.07.344 1.4.344.378 0 .304-.127-.2-.344-.44-.189-1.07-.344-1.4-.344-.378 0-.304.127.2.344m5.4 1.346c0 .187 3.789 1.462 4.275 1.438.471-.022-1.883-1.006-3.175-1.327-.605-.15-1.1-.2-1.1-.111m45.716.109c.345.57 5.884 5.497 5.884 5.235 0-.105-1.386-1.429-3.08-2.941-1.694-1.512-2.956-2.544-2.804-2.294M195.2 127.2c-.99.415-1.53.752-1.2.748.672-.008 4.028-1.485 3.4-1.496-.22-.004-1.21.333-2.2.748m113.755 3.881c-.848 1.035-1.333 1.753-1.078 1.595.544-.336 3.078-3.476 2.805-3.476-.102 0-.879.847-1.727 1.881M299.2 133c.746.77 1.447 1.4 1.557 1.4.11 0-.411-.63-1.157-1.4-.746-.77-1.447-1.4-1.557-1.4-.11 0 .411.63 1.157 1.4m-116.4.236c-.664.543-.731.679-.2.404 1.305-.674 2.028-1.228 1.6-1.225-.22.002-.85.371-1.4.821m122.929 1.947c-1.507 1.954-2.266 2.412-2.666 1.607-.111-.225-.157-.181-.1.1.233 1.153 1.336.602 2.96-1.481.948-1.215 1.637-2.209 1.53-2.209-.107 0-.883.892-1.724 1.983m-129.344 2.446L175 138.858l1.5-1.077c1.326-.951 1.757-1.381 1.385-1.381-.063 0-.738.553-1.5 1.229m96.015 2.096c0 .069.585.654 1.3 1.3l1.3 1.175-1.175-1.3c-1.095-1.212-1.425-1.484-1.425-1.175M170.981 142.1l-1.581 1.7 1.7-1.581c1.581-1.471 1.884-1.819 1.581-1.819-.065 0-.83.765-1.7 1.7m-33.631-.2c-1.183 1.625-1.548 2.452-.573 1.3.901-1.066 1.742-2.4 1.512-2.4-.076 0-.499.495-.939 1.1m139.85 2.3c.746.77 1.447 1.4 1.557 1.4.11 0-.411-.63-1.157-1.4-.746-.77-1.447-1.4-1.557-1.4-.11 0 .411.63 1.157 1.4m-207.509 2.7c-.681 1.884-.587 2.394.135.73.327-.753.54-1.531.475-1.728-.066-.197-.341.252-.61.998m64.123.535c-.373.569-.609 1.103-.525 1.187.084.085.469-.381.855-1.034.862-1.46.604-1.579-.33-.153m30.767 1.065L163 150.2l1.7-1.581c1.581-1.471 1.884-1.819 1.581-1.819-.065 0-.83.765-1.7 1.7m119.2 3c1.276 1.595 2.399 2.9 2.493 2.9.277 0-3.325-4.579-4.104-5.218-.391-.32.334.723 1.611 2.318m-123.037 1.6c-1.151 1.389-1.638 2.1-1.44 2.1.11 0 .682-.63 1.269-1.4 1.09-1.429 1.222-1.968.171-.7m-4.098 5.9c-.355.55-.937 1.495-1.293 2.1l-.648 1.1.805-.974c.95-1.15 2.211-3.226 1.959-3.226-.098 0-.468.45-.823 1m-91.617 3.229c-.148.586-.191 1.143-.097 1.237.095.094.292-.308.439-.895.148-.586.191-1.143.097-1.237-.095-.094-.292.308-.439.895M63.4 169.6c-.152.691-.193 1.341-.091 1.442.102.102.3-.389.441-1.092.333-1.667.01-1.99-.35-.35m-.76 4.44c-.147.917-.188 1.745-.093 1.84.095.096.299-.57.453-1.48.154-.91.196-1.738.093-1.84-.103-.103-.306.563-.453 1.48m60.206.827c-.025.367-.15.997-.276 1.4-.218.695-.207.696.227.02.251-.391.376-1.021.276-1.4-.162-.619-.185-.621-.227-.02m-1.024 4.555c-.15.803-.194 1.54-.096 1.638.098.097.301-.479.452-1.282.15-.803.194-1.54.096-1.638-.098-.097-.301.479-.452 1.282m25.424 1.445c-.025.367-.15.997-.276 1.4-.218.695-.207.696.227.02.251-.391.376-1.021.276-1.4-.162-.619-.185-.621-.227-.02m151.398.533c.329 1.471.558 1.79.55.767-.003-.422-.189-1.037-.412-1.367-.297-.438-.334-.276-.138.6m-177.589 3.255c-.142 1.031-.181 1.953-.086 2.047.094.094.296-.663.449-1.684.153-1.02.192-1.942.086-2.047-.106-.106-.308.652-.449 1.684m178.418.145c.131.99.303 1.875.383 1.967.301.347.072-2.203-.266-2.967-.237-.534-.276-.202-.117 1m-153.223.45c-.333 1.667-.01 1.99.35.35.152-.691.193-1.341.091-1.442-.102-.102-.3.389-.441 1.092M61 187.6c-.158 1.785-.201 3.332-.097 3.437.105.105.319-1.272.475-3.059.156-1.788.199-3.334.096-3.437-.103-.103-.316 1.274-.474 3.059m239.294 2.4c.12 1.43.283 2.675.362 2.767.279.322.06-3.379-.258-4.367-.193-.6-.235.04-.104 1.6m-154.841.036c-.139.695-.232 1.737-.206 2.314.025.578.208.077.405-1.111.385-2.318.221-3.305-.199-1.203m-24.881 8.564c0 5.06.057 7.075.127 4.477.07-2.597.069-6.737-.001-9.2-.07-2.462-.127-.337-.126 4.723m180.387 1.8c0 3.19.062 4.495.138 2.9a73.8 73.8 0 0 0 0-5.8c-.076-1.595-.138-.29-.138 2.9m-156.019 0c0 1.87.069 2.635.153 1.7.084-.935.084-2.465 0-3.4s-.153-.17-.153 1.7m.307 8.033c.026.752.194 1.907.373 2.567.215.789.25.378.103-1.2-.246-2.645-.55-3.519-.476-1.367m-84.364.767c-.013.77.12 2.21.297 3.2.432 2.431.466.147.038-2.6-.254-1.635-.315-1.745-.335-.6m239.626.4c0 .99.078 1.395.173.9a5.661 5.661 0 0 0 0-1.8c-.095-.495-.173-.09-.173.9m-179.614 1.2c0 .55.137 1.54.305 2.2.272 1.07.305 1.092.305.2 0-.55-.137-1.54-.305-2.2-.272-1.07-.305-1.092-.305-.2m25.185 3.4c0 .44.144 1.25.32 1.8.254.792.32.833.32.2 0-.44-.144-1.25-.32-1.8-.254-.792-.32-.833-.32-.2m-24.4 2c0 .44.144 1.25.32 1.8.254.792.32.833.32.2 0-.44-.144-1.25-.32-1.8-.254-.792-.32-.833-.32-.2m-59.993 2c.004.44.145 1.34.313 2 .274 1.078.306 1.098.313.2.004-.55-.137-1.45-.313-2-.251-.784-.319-.827-.313-.2m237.159.267c-.025.367-.15.997-.276 1.4-.218.695-.207.696.227.02.251-.391.376-1.021.276-1.4-.162-.619-.185-.621-.227-.02m-176.39 1.933c0 .33.155.96.344 1.4.217.504.344.578.344.2 0-.33-.155-.96-.344-1.4-.217-.504-.344-.578-.344-.2m-59.976 3.4c0 .44.144 1.25.32 1.8.254.792.32.833.32.2 0-.44-.144-1.25-.32-1.8-.254-.792-.32-.833-.32-.2m.788 4.6c.02 1.039.65 2.746.664 1.8.006-.44-.143-1.16-.332-1.6-.211-.49-.339-.568-.332-.2m88.139 3.479c.6 1.435.993 2.083.993 1.637 0-.432-1.215-3.116-1.411-3.116-.11 0 .078.666.418 1.479M64.856 236c0 .33.155.96.344 1.4.217.504.344.578.344.2 0-.33-.155-.96-.344-1.4-.217-.504-.344-.578-.344-.2m225.452 3.7c-.321.495-.801 1.35-1.068 1.9-.68 1.403.554-.094 1.401-1.7.698-1.326.482-1.456-.333-.2m-134.099 1.326c.372.675 1.032 1.665 1.467 2.2l.791.974-.676-1.226c-.372-.675-1.032-1.665-1.467-2.2l-.791-.974.676 1.226m2.982 4.562c.466.653 1.051 1.314 1.3 1.468.25.155-.05-.38-.666-1.188-1.337-1.753-1.841-1.976-.634-.28m127.153.312c-1.151 1.389-1.638 2.1-1.44 2.1.11 0 .682-.63 1.269-1.4 1.09-1.429 1.222-1.968.171-.7m-153.129 2.7c.002.22.371.85.821 1.4.543.664.679.731.404.2-.674-1.305-1.228-2.028-1.225-1.6m28.385.325c0 .069.585.654 1.3 1.3l1.3 1.175-1.175-1.3c-1.095-1.212-1.425-1.484-1.425-1.175M135.199 252c.617 1.216 3.974 6 4.211 6 .159 0-4.067-6.37-4.512-6.8-.113-.11.022.25.301.8m30.818 1.815c1.2 1.328 2.265 2.356 2.364 2.285.1-.071-.883-1.157-2.183-2.414l-2.365-2.286 2.184 2.415m-96.166-1.041c.376 1.465 1.32 3.512 1.304 2.826-.008-.33-.361-1.32-.784-2.2-.423-.88-.657-1.162-.52-.626m208.33 2.926l-1.581 1.7 1.7-1.581c1.581-1.471 1.884-1.819 1.581-1.819-.065 0-.83.765-1.7 1.7m-109.347 1c.018.165.783.922 1.7 1.682l1.666 1.381-1.581-1.681c-1.626-1.73-1.843-1.898-1.785-1.382m103.966 3.754l-1.8 1.631 1.694-1.272c1.474-1.106 2.42-2.039 2.03-2.001-.068.007-.934.746-1.924 1.642m-130.018 2.093c1.341 1.621 2.826 3.286 3.299 3.7.474.414-.544-.912-2.262-2.947-1.719-2.035-3.203-3.7-3.299-3.7-.097 0 .922 1.326 2.262 2.947m126.418.702c-1.394 1.222-1.395 1.223-.112.37.708-.471 1.394-1.028 1.524-1.238.385-.624.065-.427-1.412.868m-92.579-.015c.303.491 6.205 4.476 6.367 4.3.068-.074-1.389-1.156-3.238-2.406-1.85-1.25-3.257-2.102-3.129-1.894m126.579.81c-.494.355-.466.388.158.184.452-.147 1.098.039 1.6.462l.842.71-.762-.9c-.864-1.021-1.005-1.056-1.838-.456m-2.422 2.256l-1.378 1.5 1.5-1.378c.825-.759 1.5-1.434 1.5-1.5 0-.306-.338-.018-1.622 1.378m6.405 1c.981 1.045 1.836 1.9 1.9 1.9.301 0-.017-.359-1.783-2.017l-1.9-1.783 1.783 1.9M75.6 266.553c0 .429 1.19 2.647 1.421 2.647.11 0-.098-.585-.462-1.3-.742-1.46-.959-1.764-.959-1.347m236.804 6.651c1.367 1.542 2.69 2.928 2.941 3.08.25.152-.782-1.11-2.294-2.804-1.512-1.694-2.836-3.08-2.941-3.08-.106 0 .926 1.262 2.294 2.804m-20.501.345c-2.747 2.15-3.241 2.789-.847 1.094 1.75-1.238 3.39-2.719 2.893-2.611-.082.018-1.003.701-2.046 1.517m-139.103-.635c0 .104 1.028 1.066 2.284 2.137 1.256 1.072 2.155 1.74 1.999 1.485-.344-.559-4.283-3.89-4.283-3.622M80.2 275.6c.341.66.711 1.2.821 1.2.11 0-.08-.54-.421-1.2-.341-.66-.711-1.2-.821-1.2-.11 0 .08.54.421 1.2m205.881 2.172c-1.858 1.313-2.119 1.689-.55.79.732-.419 1.519-.987 1.749-1.262.591-.707.313-.598-1.199.472m-73.576.115c.609.092 1.509.09 2-.005.492-.095-.005-.171-1.105-.168-1.1.003-1.503.081-.895.173m19.6 0c.609.092 1.509.09 2-.005.492-.095-.005-.171-1.105-.168-1.1.003-1.503.081-.895.173m85.549 1.244c.74.842 1.414 1.478 1.498 1.414.226-.172-2.095-2.883-2.498-2.916-.191-.016.259.66 1 1.502m-101.554-.855c.385.1 1.015.1 1.4 0 .385-.101.07-.183-.7-.183s-1.085.082-.7.183m12.4 0c.385.1 1.015.1 1.4 0 .385-.101.07-.183-.7-.183s-1.085.082-.7.183m91.1 2.776c0 .212.765 1.097 1.7 1.967l1.7 1.581-1.6-1.794c-.88-.986-1.645-1.871-1.7-1.967-.055-.095-.1.001-.1.213m-154.4 1.527c0 .11.54.48 1.2.821.66.341 1.2.531 1.2.421 0-.11-.54-.48-1.2-.821-.66-.341-1.2-.531-1.2-.421M85.728 284.6c.346.66 1.099 1.74 1.673 2.4.668.769.519.41-.415-1-1.727-2.606-2.121-3.045-1.258-1.4m237.872 1.125c0 .069.585.654 1.3 1.3l1.3 1.175-1.175-1.3c-1.095-1.212-1.425-1.484-1.425-1.175m3.6 3.739c0 .218.495.833 1.1 1.366l1.1.97-1-1.2c-.55-.66-1.045-1.275-1.1-1.367-.055-.091-.1.012-.1.231m3.2 3.591c0 .213.675 1.008 1.5 1.767l1.5 1.378-1.4-1.596c-.77-.877-1.445-1.672-1.5-1.766-.055-.094-.1.003-.1.217M194.2 295.6c.44.189 1.16.338 1.6.332.643-.009.604-.075-.2-.332-1.368-.438-2.419-.438-1.4 0m52.8 0c-.504.217-.578.344-.2.344.33 0 .96-.155 1.4-.344.504-.217.578-.344.2-.344-.33 0-.96.155-1.4.344m-8.5 1.876c.385.1 1.015.1 1.4 0 .385-.101.07-.183-.7-.183s-1.085.082-.7.183m95.9.249c0 .069.585.654 1.3 1.3l1.3 1.175-1.175-1.3c-1.095-1.212-1.425-1.484-1.425-1.175m-126.695.562c.609.092 1.509.09 2-.005.492-.095-.005-.171-1.105-.168-1.1.003-1.503.081-.895.173m25.8-.004c.497.096 1.217.092 1.6-.008.382-.1-.025-.179-.905-.174-.88.004-1.193.086-.695.182m-21.805.393c.385.1 1.015.1 1.4 0 .385-.101.07-.183-.7-.183s-1.085.082-.7.183m-113.551 2.24c1.071 1.256 2.033 2.284 2.137 2.284.268 0-3.063-3.939-3.622-4.283-.255-.156.413.743 1.485 1.999m119.572-1.818c2.156.073 5.576.072 7.6 0 2.023-.073.259-.132-3.921-.131-4.18 0-5.836.059-3.679.131M336 303.8c-.972.99-1.677 1.8-1.567 1.8.11 0 .995-.81 1.967-1.8.972-.99 1.677-1.8 1.567-1.8-.11 0-.995.81-1.967 1.8m-232.877 2.5c.878 1.045 2.099 2.35 2.714 2.9.614.55-.034-.305-1.441-1.9-2.864-3.246-3.739-3.933-1.273-1M330.4 309c-.972.99-1.677 1.8-1.567 1.8.11 0 .995-.81 1.967-1.8.972-.99 1.677-1.8 1.567-1.8-.11 0-.995.81-1.967 1.8m-220.6 3.8c1.083 1.1 2.06 2 2.17 2 .11 0-.687-.9-1.77-2s-2.06-2-2.17-2c-.11 0 .687.9 1.77 2m2.6 2.125c0 .069.585.654 1.3 1.3l1.3 1.175-1.175-1.3c-1.095-1.212-1.425-1.484-1.425-1.175m6.944 5.784c.316.512 2.656 2.244 2.656 1.966 0-.099-.661-.684-1.468-1.3-.808-.616-1.343-.916-1.188-.666m192.866 2.54c-3.72 2.63-4.527 3.244-3.81 2.899 1.132-.546 6.345-4.135 6.596-4.542.354-.572.316-.55-2.786 1.643m-189.666-.14c.316.512 2.656 2.244 2.656 1.966 0-.099-.661-.684-1.468-1.3-.808-.616-1.343-.916-1.188-.666m7.856 5.392c0 .254 3.096 2.299 3.48 2.299.164 0-.057-.242-.491-.539-1.908-1.302-2.989-1.939-2.989-1.76m172.6.699c-.66.437-1.02.792-.8.788.401-.006 2.576-1.565 2.2-1.576-.11-.004-.74.351-1.4.788m-168 2.207c.44.359 1.16.828 1.6 1.044l.8.393-.8-.651c-.44-.359-1.16-.828-1.6-1.044l-.8-.393.8.651m3 1.815c1.033.704 3.6 2.003 3.6 1.82 0-.209-3.595-2.245-3.95-2.236-.138.003.02.19.35.416m147.6 5.178c-.77.422-1.22.766-1 .766.22 0 1.03-.344 1.8-.766.77-.422 1.22-.766 1-.766-.22 0-1.03.344-1.8.766m-107 10.8c.44.189 1.07.344 1.4.344.378 0 .304-.127-.2-.344-.44-.189-1.07-.344-1.4-.344-.378 0-.304.127.2.344m76 0c-.504.217-.578.344-.2.344.33 0 .96-.155 1.4-.344.504-.217.578-.344.2-.344-.33 0-.96.155-1.4.344m-72.4.8c.44.189 1.16.338 1.6.332.643-.009.604-.075-.2-.332-1.368-.438-2.419-.438-1.4 0m69 0c-.804.257-.843.323-.2.332.44.006 1.16-.143 1.6-.332 1.019-.438-.032-.438-1.4 0m-65 .8c.44.189 1.16.338 1.6.332.643-.009.604-.075-.2-.332-1.368-.438-2.419-.438-1.4 0m61 0c-.804.257-.843.323-.2.332.44.006 1.16-.143 1.6-.332 1.019-.438-.032-.438-1.4 0m-56.8.8c.55.176 1.45.317 2 .313.898-.007.878-.039-.2-.313-1.692-.431-3.144-.431-1.8 0m52.6 0c-1.107.282-1.123.309-.2.347.55.022 1.27-.134 1.6-.347.681-.44.329-.44-1.4 0m-47 .78c.999.34 3.482.552 3.167.271-.092-.082-1.067-.252-2.167-.379-1.349-.156-1.674-.121-1 .108m7.2.819c1.85.351 5.064.52 4.767.25-.092-.084-1.607-.251-3.367-.372-2.406-.165-2.753-.135-1.4.122m26.8.001c-1.625.253-1.664.282-.4.305.77.014 2.3-.115 3.4-.287 1.892-.294 1.913-.311.4-.304-.88.003-2.41.132-3.4.286M.006 357.876c.003.398.181.994.394 1.324.303.469.389.366.394-.476.003-.592-.174-1.188-.394-1.324-.22-.136-.397.078-.394.476m397.843 2.739a3.854 3.854 0 0 0-.215 1.318c.019.367.193.136.387-.513.377-1.262.244-1.887-.172-.805M.856 361.6c0 .33.155.96.344 1.4.217.504.344.578.344.2 0-.33-.155-.96-.344-1.4-.217-.504-.344-.578-.344-.2m390.181 16.3c-.812 1.265-1.058 1.808-.547 1.206 1.01-1.188 2.457-3.506 2.189-3.506-.091 0-.83 1.035-1.642 2.3M8.175 378.932c.616.807 1.201 1.468 1.3 1.468.278 0-1.454-2.34-1.966-2.656-.25-.155.05.38.666 1.188m378.806 4.368L385.4 385l1.7-1.581c.935-.87 1.7-1.635 1.7-1.7 0-.303-.348 0-1.819 1.581M14 385.8c1.417 1.43 2.667 2.6 2.777 2.6.11 0-.96-1.17-2.377-2.6-1.417-1.43-2.667-2.6-2.777-2.6-.11 0 .96 1.17 2.377 2.6m368.378 2.1L381 389.4l1.5-1.378c1.396-1.284 1.684-1.622 1.378-1.622-.066 0-.741.675-1.5 1.5m-3.2 2.427a264.31 264.31 0 0 1-2.4 1.79c-.94.69-.927.69.352 0 1.265-.681 4.094-2.897 3.67-2.873-.11.006-.84.493-1.622 1.083M23.6 393.22c1.387.941 2.178 1.215 1.2.416-.55-.45-1.18-.819-1.4-.821-.22-.002-.13.181.2.405m14.8 5.58c.55.176 1.36.32 1.8.32.633 0 .592-.066-.2-.32-.55-.176-1.36-.32-1.8-.32-.633 0-.592.066.2.32m321 0c-1.089.277-1.107.307-.2.325.55.01 1.36-.136 1.8-.325.986-.424.066-.424-1.6 0m-315.4.824c2.411.424 308.958.422 311-.003.88-.183-69.14-.328-155.6-.323-86.46.005-156.39.152-155.4.326"/><path fill="#fce2c7" d="M39.2.85c-7.756 1.571-17.819 6.165-21.529 9.828-1.045 1.033-.028.489 2.322-1.242 4.9-3.606 11.852-6.559 18.918-8.033C43.159.517 354.938.5 359.6 1.386c8.543 1.623 18.847 6.467 22.617 10.633.389.43.878.781 1.087.781.515 0-1.921-2.247-3.353-3.093-.633-.374-1.151-.821-1.151-.993 0-.173-.197-.314-.438-.314s-.964-.374-1.606-.832c-3.664-2.608-11.492-5.636-17.38-6.721C356.325.285 41.977.288 39.2.85M14.571 13.504C12.468 15.47 10.527 17.6 10.84 17.6c.099 0 1.521-1.35 3.16-3 3.341-3.364 3.666-3.988.571-1.096M386.8 16.525c0 .069.578.654 1.285 1.3 1.138 1.041.893.405-.356-.923-.439-.467-.929-.666-.929-.377M9.783 18.54c-.9.994-2.983 4.228-2.983 4.632 0 .235-.142.428-.316.428-.295 0-1.544 2.31-3.029 5.6C2.399 31.541.523 37.678.215 39.8c-.396 2.734.085 2.09.624-.835 1.115-6.045 4.896-14.578 8.457-19.083 1.094-1.385 1.474-2.43.487-1.342m381.421 3.666c1.098 1.595 4.331 7.774 4.916 9.394.148.411.227.434.248.075.073-1.201-5.349-11.275-6.067-11.275-.187 0 .22.813.903 1.806m5.196 10.356c0 .116.246.981.546 1.924.641 2.012 1.256 5.015 1.825 8.914.273 1.868.414 53.963.423 156.467.015 165.39.113 157.126-1.956 164.922-.436 1.644-.718 3.065-.625 3.157.18.18.231.034.973-2.746.943-3.535 1.167-4.645 1.612-8 .66-4.961.32-312.718-.349-316.4a195 195 0 0 1-.703-4.103c-.127-.826-.391-1.602-.588-1.723-.197-.122-.358-.65-.358-1.174 0-.524-.18-1.064-.4-1.2-.22-.136-.4-.153-.4-.038M208.2 47.2l-3.2.253 3.2.024c1.76.013 4.46-.106 6-.264l2.8-.287-2.8.01c-1.54.006-4.24.125-6 .264m19 .014c1.43.161 3.86.286 5.4.277l2.8-.015-3.4-.298c-4.727-.415-8.556-.386-4.8.036M199.6 48l-1.8.28 2 .02c1.1.011 2.45-.124 3-.3 1.325-.424-.47-.424-3.2 0m37.8-.022c.754.345 5.324.594 4.967.271-.092-.083-1.427-.26-2.967-.394-1.824-.158-2.521-.116-2 .123m-43.8.822l-1.4.295 1.6.046c.88.026 1.87-.128 2.2-.341.724-.468-.177-.468-2.4 0m50.2-.02c.761.346 3.717.584 3.367.271-.092-.082-1.067-.258-2.167-.392-1.346-.164-1.739-.124-1.2.121m-55 .82l-1.4.295 1.4.046c.77.026 1.67-.128 2-.341.727-.47.233-.47-2 0m59.794-.009c.139.225.993.409 1.896.409 2.02 0 1.866-.203-.419-.554-1.14-.174-1.644-.125-1.477.145m-63.794.701c-2.304.421-5.12 1.328-3.4 1.095 4.223-.574 4.826-.693 5.18-1.028.399-.377-.004-.392-1.78-.067m68 .108c.33.213 1.23.369 2 .347l1.4-.042-1.2-.305c-1.876-.477-2.939-.477-2.2 0m3.804.806c.134.217.803.394 1.486.394 1.511 0 1.359-.2-.41-.537-.825-.157-1.228-.103-1.076.143M177.8 52l-1.2.305 1.276.048c.702.026 1.388-.133 1.524-.353.274-.443.14-.443-1.6 0m82.4-.025c1.728.694 3.694 1.224 4.428 1.194.425-.016-.398-.376-1.828-.798-2.607-.77-4.098-.997-2.6-.396m-85.4.825l-1 .32 1.076.04c.592.022 1.188-.14 1.324-.36.281-.455.02-.455-1.4 0m-2.6.674c-1.376.312-12.739 4.137-14 4.713-.66.301-2.01.859-3 1.24-.99.381-1.98.859-2.2 1.062-.372.343.396.066 5.9-2.125 1.155-.46 4.62-1.649 7.7-2.643 6.923-2.234 8.718-2.954 5.6-2.247m93.6.126c.136.22.539.4.895.4.646 0 2.783.615 4.305 1.239.44.18 2.235.797 3.989 1.371 4.339 1.421 12.532 4.763 16.352 6.671 1.728.863 3.227 1.484 3.331 1.38.165-.164-7.204-3.861-7.696-3.861-.102 0-1.038-.378-2.08-.84a113.961 113.961 0 0 0-2.796-1.2c-.495-.198-1.305-.531-1.8-.74-2.346-.992-13.94-4.82-14.596-4.82-.083 0-.04.18.096.4m-115 7.599c-.33.194-2.897 1.464-5.705 2.822-2.807 1.359-5.217 2.653-5.355 2.876-.138.224-.091.33.104.237 5.499-2.631 12.606-6.317 12.156-6.304-.33.009-.87.176-1.2.369m147.6 5.394c0 .107.9.65 2 1.207 2.515 1.275 2.621 1.016.15-.366-1.923-1.074-2.15-1.163-2.15-.841m-164.324 3.319c-.948.536-1.645 1.052-1.55 1.147.137.137 2.659-1.132 3.441-1.731.77-.59-.516-.193-1.891.584M306.4 71.167c.963.785 1.6 1.041 1.6.643 0-.104-.585-.475-1.3-.824l-1.3-.634 1 .815m-175.606.851c-.547.421-.814.762-.594.76.529-.005 1.991-1.12 1.765-1.347-.097-.097-.624.167-1.171.587M310.8 73.723c0 .104 1.078.884 2.397 1.733 1.318.849 2.398 1.679 2.4 1.844.001.165.258.3.57.3.311 0 .647.225.745.5.098.275.301.387.45.25.15-.138-.591-.865-1.645-1.616-2.438-1.737-4.917-3.255-4.917-3.011m-187.209 3.146c-4.49 3.205-8.558 6.463-13.373 10.711-3.205 2.827-9.418 8.974-9.418 9.317 0 .172 1.677-1.354 3.726-3.392 3.575-3.555 6.759-6.453 10.722-9.762 2.71-2.264 3.209-2.654 4.752-3.729.77-.537 1.49-1.088 1.6-1.225.11-.137 1.37-1.028 2.8-1.981 3.112-2.073 2.976-1.965 2.758-2.184-.097-.096-1.702.914-3.567 2.245m194.432 1.784c.012.191 1.677 1.564 3.7 3.053 3.883 2.856 4.68 3.517 9.49 7.872 1.657 1.5 3.592 3.215 4.3 3.81 1.258 1.058 1.669 2.329.906 2.8-.493.305-2.14 2.612-1.865 2.612.115 0 .857-.849 1.65-1.886l1.44-1.886-2.539-2.414c-6.012-5.717-17.138-14.81-17.082-13.961M98.362 99.5C93.906 104.282 82 120.528 82 121.828c0 .137-.337.726-.75 1.31-1.282 1.817-5.328 9.662-4.98 9.658.181-.002.826-1.037 1.431-2.3 2.145-4.473 4.688-8.839 8.442-14.496 2.462-3.71 6.018-8.637 6.641-9.2.121-.11.694-.83 1.274-1.6.579-.77 1.533-1.94 2.12-2.6 2.257-2.536 4.289-5 4.126-5-.095 0-.968.855-1.942 1.9M215.4 97.957c-.88.134 1.82.243 6 .243s6.79-.122 5.8-.27c-2.177-.327-9.582-.31-11.8.027m-8.2.845c-.404.263.251.308 2 .138 1.43-.138 2.675-.317 2.767-.396.398-.344-4.226-.093-4.767.258m23.633-.258c.092.08 1.247.261 2.567.403 1.643.177 2.211.133 1.8-.138-.539-.357-4.768-.613-4.367-.265m-28.639 1.065c-.167.27.337.319 1.477.145 2.285-.351 2.439-.554.419-.554-.903 0-1.757.184-1.896.409m34.239-.265c.092.08.977.262 1.967.406 1.258.183 1.619.141 1.2-.138-.54-.359-3.568-.615-3.167-.268m96.956.371c-.827.977-2.238 3.085-2.064 3.085.098 0 .842-.81 1.654-1.8.811-.99 1.328-1.793 1.148-1.785-.18.009-.512.234-.738.5m-135.199.701c-.169.273.133.322.876.144 1.533-.368 1.678-.56.424-.56-.573 0-1.158.187-1.3.416m43.043-.272c.472.406 2.41.649 2.177.272-.142-.229-.727-.416-1.3-.416-.574 0-.968.065-.877.144m-46.243 1.072c-.169.273.133.322.876.144 1.533-.368 1.678-.56.424-.56-.573 0-1.158.187-1.3.416m49.443-.272c.472.406 2.41.649 2.177.272-.142-.229-.727-.416-1.3-.416-.574 0-.968.065-.877.144M192.2 102c-.292.473.099.473 1.2 0 .771-.331.769-.345-.076-.372-.482-.015-.988.152-1.124.372m56 0c1.101.473 1.492.473 1.2 0-.136-.22-.642-.387-1.124-.372-.845.027-.847.041-.076.372m-58.8.8c-.292.473.099.473 1.2 0 .771-.331.769-.345-.076-.372-.482-.015-.988.152-1.124.372m-2.4.8c-.292.473.099.473 1.2 0 .771-.331.769-.345-.076-.372-.482-.015-.988.152-1.124.372m143.189.115c-.827.977-2.238 3.085-2.064 3.085.098 0 .842-.81 1.654-1.8.811-.99 1.328-1.793 1.148-1.785-.18.009-.512.234-.738.5m-153.591 4.024c-.44.254-2.591 1.422-4.778 2.598-3.492 1.876-12.072 7.335-12.62 8.03-.11.14-1.01.879-2 1.643-7.262 5.607-14.955 13.997-20.644 22.514-1.446 2.165-2.538 4.027-2.428 4.138.111.11.706-.668 1.323-1.731.617-1.062 1.904-3.011 2.86-4.331 9.969-13.76 21.446-23.672 36.089-31.167 2.09-1.07 3.875-2.01 3.967-2.089.399-.345-1.042-.023-1.769.395m150.302.059c-.275.313-.5.679-.5.814 0 .135-.225.474-.5.753-.275.28-.95 1.105-1.5 1.835s-1.184 1.523-1.409 1.763c-.433.462-4.393 5.391-6.4 7.964-.655.84-1.731 2.211-2.391 3.046-3.934 4.982-5.027 6.427-4.86 6.427.143 0 9.992-12.199 17.989-22.281.782-.986.405-1.268-.429-.321m-62.1.366c0 .271 4.127 2.242 4.31 2.059.093-.093-.742-.631-1.857-1.196-2.017-1.022-2.453-1.176-2.453-.863m4.8 2.407c0 .094.495.424 1.1.734 1.186.608 2.461 1.338 6.47 3.7 3.003 1.77 12.495 8.848 15.53 11.579 1.155 1.04 2.1 1.76 2.1 1.6 0-.296-.327-.602-3.748-3.509-6.675-5.672-21.452-15.387-21.452-14.104m-54.2 12.183c-.66.143 2.85.263 7.8.266 4.95.004 8.28-.123 7.4-.283-1.955-.355-13.538-.342-15.2.017m-6 .846c-.682.293-.623.344.4.344.66 0 1.56-.155 2-.344.682-.293.623-.344-.4-.344-.66 0-1.56.155-2 .344m25 0c1.467.47 3.294.47 2.2 0-.44-.189-1.34-.338-2-.332-1.17.011-1.175.02-.2.332m-28.8.8c-.795.514.204.514 1.4 0l.8-.344-.8-.022c-.44-.012-1.07.153-1.4.366m33.4 0c.44.189 1.16.344 1.6.344h.8l-.8-.344c-.44-.189-1.16-.344-1.6-.344h-.8l.8.344m-36.8.8l-.8.344.8.022c.44.012 1.07-.153 1.4-.366.795-.514-.204-.514-1.4 0m40.2 0c.33.213.96.378 1.4.366l.8-.022-.8-.344c-1.196-.514-2.195-.514-1.4 0m-49.6 3.2c-.533.345-.533.388 0 .388.33 0 .87-.175 1.2-.388.533-.345.533-.388 0-.388-.33 0-.87.175-1.2.388m102.413.078c.504.747 7.699 7.943 7.821 7.822.077-.078-1.693-1.932-3.934-4.12-2.241-2.189-3.99-3.855-3.887-3.702m-37.61 2.212c.004.365 2.062 1.379 2.305 1.135.092-.091-.39-.454-1.071-.806-.68-.352-1.236-.5-1.234-.329m50.595.669a141.69 141.69 0 0 1-1.325 1.8c-1.402 1.876-.771 1.487.906-.559.811-.99 1.327-1.8 1.146-1.8-.181 0-.508.251-.727.559m-123.598 1.12c-2.465 1.403-3.845 2.409-3.616 2.638.143.143.385.085.538-.129.347-.485 2.444-1.763 3.378-2.059.385-.122.7-.381.7-.576 0-.435-.016-.433-1 .126m76.6.321c.55.43 1.143.786 1.318.791.175.005 1.699.954 3.386 2.109 3.745 2.563 4.68 3.081 3.096 1.716-1.346-1.161-8.047-5.421-8.505-5.407-.162.005.155.361.705.791m43.126 3.247c-.591.634-.861 1.143-.6 1.131.26-.012.893-.552 1.404-1.2 1.185-1.5.612-1.45-.804.069m-128.335 2.199c-5.855 4.41-16.812 15.754-15.218 15.754.235 0 .427-.135.427-.3.001-.165.406-.779.9-1.364.495-.585 1.474-1.755 2.175-2.6 2.108-2.539 4.973-5.407 7.725-7.736 1.43-1.21 2.69-2.299 2.8-2.419.11-.121.83-.658 1.6-1.195.77-.536 1.67-1.199 2-1.473.33-.274.96-.766 1.4-1.093.44-.327.673-.6.517-.607-.155-.007-2.102 1.358-4.326 3.033m94.428.392c.02.382 4.088 3.762 4.527 3.762.141 0-.509-.667-1.445-1.483-2.766-2.411-3.102-2.659-3.082-2.279m7.464 6.862c3.387 3.359 7.075 7.836 9.474 11.5 1.009 1.54 1.971 2.98 2.138 3.2.61.801 2.825 5.096 4.094 7.939.477 1.066.956 1.849 1.065 1.74.392-.392-4.048-8.832-6.759-12.848-3.482-5.156-11.379-14.231-12.384-14.231-.193 0 .875 1.215 2.372 2.7m-145.704 4.14c-.374.723-1.026 1.931-1.449 2.684-.423.754-.689 1.451-.59 1.549.098.099.824-1.036 1.612-2.521.789-1.484 1.36-2.773 1.27-2.863-.089-.09-.469.428-.843 1.151M69 149.6c-.15.473-.183.95-.073 1.06.11.11.323-.187.473-.66.15-.473.183-.95.073-1.06-.11-.11-.323.187-.473.66m-.8 2.4c-.15.473-.183.95-.073 1.06.11.11.323-.187.473-.66.15-.473.183-.95.073-1.06-.11-.11-.323.187-.473.66m-.771 2.629c-.148.586-.178 1.155-.068 1.265.11.11.32-.279.468-.865.147-.587.177-1.156.067-1.266-.11-.11-.32.279-.467.866m91.798.933c-.909 1.277-1.118 2.012-.327 1.151.629-.684 1.566-2.313 1.331-2.313-.097 0-.549.523-1.004 1.162m-92.554 1.391c-.15.392-.262 1.013-.248 1.38.017.442.156.341.412-.299.212-.531.324-1.152.248-1.38-.076-.227-.261-.093-.412.299m-.844 3.276c-.148.586-.178 1.155-.068 1.265.11.11.32-.279.468-.865.147-.587.177-1.156.067-1.266-.11-.11-.32.279-.467.866m90.408-.029c-.361.55-.5 1-.31 1 .189 0 .55-.45.8-1 .251-.55.39-1 .31-1-.08 0-.44.45-.8 1m-90.991 2.467c-.025.257-.162.797-.305 1.2-.201.569-.147.63.238.275.273-.251.41-.791.305-1.2-.105-.408-.212-.532-.238-.275M153.8 164.4c-.362.701-.574 1.359-.471 1.462.103.103.477-.393.831-1.102.354-.709.566-1.367.471-1.462-.095-.095-.469.401-.831 1.102m-28.333-.133c-.147.146-.256.641-.242 1.1.024.766.057.756.409-.125.392-.979.31-1.453-.167-.975m-61.643 5.221c-.376 2.152-.851 4.667-1.054 5.589-.204.923-.354 2.273-.334 3 .02.739.281-.089.592-1.877.305-1.76.853-4.781 1.216-6.714.363-1.933.572-3.603.463-3.712-.109-.109-.506 1.562-.883 3.714m60.843-2.821c-.147.146-.267.676-.267 1.176 0 .5-.16 1.009-.356 1.13-.336.207-.502.892-1.026 4.227-.121.77.316-.389.972-2.576 1.14-3.802 1.268-4.548.677-3.957m26.019 4.55c-.372.949-.6 1.802-.505 1.897.243.244 1.465-2.776 1.31-3.24-.07-.21-.432.394-.805 1.343m144.148-.512c-.019.278.133.818.337 1.2.204.382.478 1.036.609 1.452.131.417.338.658.46.536s-.137-1.002-.576-1.957c-.438-.955-.812-1.509-.83-1.231m-145.367 3.562c-.147.146-.267.599-.267 1.005 0 .406-.162 1.051-.361 1.433-.672 1.293-1.338 3.999-1.119 4.549.169.427.224.414.248-.059.018-.333.483-2.026 1.035-3.764.952-3.001 1.064-3.765.464-3.164m146.961.809c-.015.482.152.988.372 1.124.473.292.473-.099 0-1.2-.331-.771-.345-.769-.372.076m-174.161-.009c-.147.146-.249.911-.227 1.7l.04 1.433.366-1.56c.369-1.572.313-2.065-.179-1.573m174.939 2.366c.003.422.189 1.037.412 1.367.297.438.334.276.138-.6-.329-1.471-.558-1.79-.55-.767m-175.757 1.582c-.137.358-.227 1.401-.199 2.318.048 1.598.063 1.577.368-.531.329-2.268.267-2.921-.169-1.787M61.894 181c-.157.88-.263 2.68-.236 4l.048 2.4.349-3.2c.389-3.563.282-5.688-.161-3.2M298 180.51c0 .573.187 1.158.416 1.3.273.169.322-.133.144-.876-.368-1.533-.56-1.678-.56-.424m-150.951 2.105c-.137.358-.231 1.131-.209 1.718.033.858.112.762.406-.493.376-1.601.249-2.387-.197-1.225m151.797.985c-.019.55.141 1.27.354 1.6.494.764.494-.058 0-1.6l-.32-1-.034 1m-178.199.859c-.973 6.375-1.138 18.09-.347 24.741.793 6.676 1.119 8.753 1.421 9.055.327.326-.036-2.915-.588-5.255-.613-2.598-.88-20.276-.38-25.167.418-4.092.347-6.345-.106-3.374m25.745 1.174c-.004.092-.273 2.147-.596 4.567-.963 7.189-.399 23.748.849 24.974.126.124.131-.584.009-1.574l-.689-5.6c-.501-4.055-.317-12.972.388-18.785.225-1.862.328-3.467.228-3.567-.099-.1-.185-.106-.189-.015m153.236 2.4c.016.752.192 1.727.392 2.167.245.539.285.146.121-1.2-.29-2.381-.552-2.876-.513-.967m-238.639 3.373c-.588 7.842.418 25.072 1.96 33.594.12.66.327 1.893.46 2.741.133.847.323 1.461.42 1.363.098-.098-.179-2.591-.615-5.541-1.378-9.324-1.74-14.67-1.725-25.463.016-11.415-.065-12.495-.5-6.694m239.578 8.994c0 4.29.059 6.045.131 3.9a140.86 140.86 0 0 0 0-7.8c-.072-2.145-.131-.39-.131 3.9m-.711 10.484c-.135.504-.226 1.546-.204 2.316.034 1.134.11.989.4-.761.368-2.214.244-3.196-.196-1.555m-.789 4.583c-.147.146-.251.821-.231 1.5l.036 1.233.387-1.344c.386-1.343.31-1.892-.192-1.389m-152.235.905c-.018.534.137 1.524.344 2.2l1.452 4.743c.592 1.933 1.161 3.429 1.265 3.325.104-.104-.212-1.394-.702-2.868a92.703 92.703 0 0 1-1.609-5.526c-.395-1.565-.732-2.409-.75-1.874m-24.778 3.4c-.029.644.114 1.724.319 2.4.205.675.586 2.038.846 3.028.44 1.671.724 2.629 1.353 4.557.136.417.338.667.449.556.111-.111.022-.674-.198-1.251-.453-1.194-2.264-7.951-2.535-9.462-.166-.925-.183-.912-.234.172m176.213-.705c-.147.146-.252.731-.233 1.3.034 1.014.041 1.012.387-.147.364-1.217.31-1.618-.154-1.153m-.8 2.8c-.147.146-.252.731-.233 1.3.034 1.014.041 1.012.387-.147.364-1.217.31-1.618-.154-1.153m-2.497 7.576c-1.41 4.291-6.203 12.571-10.863 18.765-2.666 3.542-6.454 7.522-10.084 10.592-1.17.99-2.329 1.986-2.575 2.213-.247.227-1.078.853-1.848 1.389-.77.537-1.718 1.267-2.107 1.623-.388.356-1.198.901-1.8 1.21-.601.31-1.183.654-1.293.764-.394.396-2.613 1.655-3.3 1.872-.385.122-.7.398-.7.614 0 .43 2.562-.98 6.049-3.33 9.205-6.203 17.67-15.083 23.329-24.476 2.355-3.906 5.993-11.441 5.677-11.757-.13-.13-.348.104-.485.521M64.087 230.6c-.004.66.137 1.65.313 2.2l.32 1-.007-1c-.004-.55-.145-1.54-.313-2.2l-.305-1.2-.008 1.2m.741 4.476c.09 1.039.716 1.92.744 1.048.015-.482-.152-.988-.372-1.124-.22-.136-.387-.102-.372.076m.806 2.924c.012.33.177.96.366 1.4l.344.8.022-.8c.012-.44-.153-1.07-.366-1.4-.345-.533-.385-.533-.366 0m61.984-.161c-.025.618 1.226 3.05 1.453 2.824.103-.103-.178-.879-.624-1.725-.447-.846-.82-1.341-.829-1.099m27.741 1.261c.786 1.49 1.815 2.791 1.819 2.3.002-.22-.348-.85-.778-1.4-.43-.55-.786-1.225-.791-1.5-.005-.275-.194-.5-.419-.5-.24 0-.169.458.169 1.1m-88.947 2.1c0 .33.175.87.388 1.2.345.533.388.533.388 0 0-.33-.175-.87-.388-1.2-.345-.533-.388-.533-.388 0m91.939 2.6c.656 1.231 2.03 2.848 2.039 2.4.005-.22-.548-1.03-1.229-1.8-.68-.77-1.044-1.04-.81-.6m-91.139.2c0 .33.175.87.388 1.2.345.533.388.533.388 0 0-.33-.175-.87-.388-1.2-.345-.533-.388-.533-.388 0m.816 2.676c.09 1.039.716 1.92.744 1.048.015-.482-.152-.988-.372-1.124-.22-.136-.387-.102-.372.076m92.772.411c0 1.016 8.675 10.152 12.8 13.48 4.003 3.23 5.6 4.362 5.6 3.967 0-.199-.533-.677-1.185-1.062s-1.417-.919-1.7-1.186c-.283-.267-1.218-1.012-2.078-1.654-2.259-1.689-9.418-8.839-11.584-11.569-1.019-1.285-1.853-2.174-1.853-1.976m-27.578 2.313c.005.529 1.12 1.991 1.347 1.765.097-.097-.167-.624-.587-1.171-.421-.547-.762-.814-.76-.594m4.226 6.7c2.057 3.483 12.552 15.519 12.552 14.395 0-.221-.687-1.023-1.527-1.781-2.11-1.907-6.393-6.866-8.87-10.271-1.809-2.488-3.014-3.798-2.155-2.343m-63.031 7.4c.009.165.361.93.783 1.7.921 1.682 1.065 1.055.171-.739-.604-1.209-.99-1.598-.954-.961m229.831 1.2c.424.385 1.936 2.043 3.361 3.685 1.425 1.641 2.951 3.365 3.391 3.829 1.358 1.433 13.543 15.027 14.558 16.241.527.63 1.157 1.139 1.4 1.132.243-.007.172-.232-.158-.5-.33-.268-1.305-1.297-2.166-2.287s-2.571-2.894-3.8-4.231c-2.5-2.721-3.703-4.062-8.034-8.963a351.824 351.824 0 0 0-4.868-5.4c-1.027-1.103-2.255-2.501-2.729-3.106-.473-.605-1.056-1.1-1.293-1.1-.238 0-.086.315.338.7m-4.474 2.652c-6.172 5.448-7.569 6.722-6.787 6.186a32.454 32.454 0 0 0 2.758-2.141c.25-.221 1.085-.918 1.855-1.548 1.996-1.633 5.668-5.118 5.523-5.241-.068-.057-1.575 1.177-3.349 2.744m-119.396-1.783c1.709 1.314 5.222 3.204 5.222 2.81 0-.208-.152-.379-.338-.379-.186 0-1.452-.72-2.813-1.6-2.565-1.657-3.782-2.146-2.071-.831m-101.376 7.142c.83 1.601 1.578 2.842 1.662 2.758.194-.193-2.169-4.729-2.744-5.269-.235-.22.253.91 1.082 2.511m72.198-.944c0 .34 2.36 2.603 4.098 3.928.788.601 1.673 1.327 1.967 1.612.294.286 1.165.955 1.935 1.487.77.532 1.49 1.081 1.6 1.219.421.529 6.385 4.387 6.782 4.387.23 0 .418.147.418.326 0 .408 10.378 5.829 10.647 5.561.108-.108-1.209-.882-2.926-1.72-7.337-3.582-16.62-9.826-22.226-14.95-1.262-1.153-2.295-1.986-2.295-1.85M197.4 274c1.101.473 1.492.473 1.2 0-.136-.22-.642-.387-1.124-.372-.845.027-.847.041-.076.372m91.883 1.868c-1.385 1.007-2.395 1.944-2.246 2.081.15.138.353.026.451-.249.098-.275.434-.5.745-.5.312 0 .567-.138.567-.306 0-.168.72-.75 1.6-1.294.88-.544 1.6-1.126 1.6-1.294 0-.426.079-.471-2.717 1.562M199.8 274.8c1.101.473 1.492.473 1.2 0-.136-.22-.642-.387-1.124-.372-.845.027-.847.041-.076.372m45.4 0c0 .501.424.501 1.2 0 .485-.314.428-.389-.3-.394-.495-.003-.9.174-.9.394m-42.6.8c1.196.514 2.195.514 1.4 0-.33-.213-.96-.378-1.4-.366l-.8.022.8.344m39.6 0c-.292.473.099.473 1.2 0 .771-.331.769-.345-.076-.372-.482-.015-.988.152-1.124.372m-160.341 2.3c3.285 5.711 12.271 18.359 14.018 19.732.698.548.078-.54-.702-1.232-1.866-1.655-12.76-17.624-13.439-19.7-.126-.385-.396-.7-.6-.7-.203 0 .122.855.723 1.9m123.374-1.756c.472.406 2.41.649 2.177.272-.142-.229-.727-.416-1.3-.416-.574 0-.968.065-.877.144m33.567.256c-.795.514.204.514 1.4 0l.8-.344-.8-.022c-.44-.012-1.07.153-1.4.366m-28.8.8c1.53.49 2.758.49 2 0-.33-.213-1.14-.373-1.8-.354-1.176.033-1.18.04-.2.354m24 0c-.739.477.324.477 2.2 0l1.2-.305-1.4-.042c-.77-.022-1.67.134-2 .347m-17.2.82c2.288.408 9.981.406 12.6-.002 1.31-.204-.829-.312-6.2-.314-5.328-.003-7.57.108-6.4.316m67.8 1.101c-5.16 3.313-8.566 5.271-13.16 7.563-4.547 2.269-6.354 3.079-10.195 4.568-.526.204-.868.459-.76.567.528.528 17.808-7.728 18.248-8.719.074-.165.311-.3.528-.3.217 0 1.147-.501 2.067-1.112.92-.612 2.122-1.342 2.672-1.623 1.367-.697 2.578-1.623 2.371-1.814-.094-.086-.891.305-1.771.87m43.596 12.079c.61.77 2.505 2.93 4.21 4.8 1.706 1.87 3.562 3.94 4.126 4.6l1.025 1.2-2.821 2.7c-1.552 1.485-2.663 2.7-2.468 2.7.194 0 1.586-1.242 3.093-2.761l2.739-2.76-3.94-4.34c-5.133-5.652-7.553-8.143-5.964-6.139M181 291.377c1.1.502 2.45 1.028 3 1.17l1 .257-1-.475c-3.103-1.473-4.194-1.926-4.575-1.896-.234.018.475.443 1.575.944m4.6 1.823c.33.213.87.388 1.2.388.533 0 .533-.043 0-.388-.33-.213-.87-.388-1.2-.388-.533 0-.533.043 0 .388m70.4 0c-.533.345-.533.388 0 .388.33 0 .87-.175 1.2-.388.533-.345.533-.388 0-.388-.33 0-.87.175-1.2.388m-68 .8c.33.213.87.388 1.2.388.533 0 .533-.043 0-.388-.33-.213-.87-.388-1.2-.388-.533 0-.533.043 0 .388m65.6 0c-.533.345-.533.388 0 .388.33 0 .87-.175 1.2-.388.533-.345.533-.388 0-.388-.33 0-.87.175-1.2.388m-63.2.8c.33.213.87.388 1.2.388.533 0 .533-.043 0-.388-.33-.213-.87-.388-1.2-.388-.533 0-.533.043 0 .388m60.6 0l-.8.344.8.022c.44.012 1.07-.153 1.4-.366.795-.514-.204-.514-1.4 0m-58 .8c.136.22.642.387 1.124.372.845-.027.847-.041.076-.372-1.101-.473-1.492-.473-1.2 0m55.2 0c-.771.331-.769.345.076.372.482.015.988-.152 1.124-.372.292-.473-.099-.473-1.2 0m-52.2.8c.33.213 1.05.373 1.6.354l1-.034-1-.32c-1.542-.494-2.364-.494-1.6 0m49 0l-.8.344.8.022c.44.012 1.07-.153 1.4-.366.795-.514-.204-.514-1.4 0m-45.2.8c.136.22.822.382 1.524.36 1.219-.038 1.231-.054.276-.36-1.436-.46-2.084-.46-1.8 0m41.4 0l-1 .32 1 .034c.55.019 1.27-.141 1.6-.354.764-.494-.058-.494-1.6 0m-37.2.8c.33.213 1.14.373 1.8.354 1.176-.033 1.18-.04.2-.354-1.53-.49-2.758-.49-2 0m32.6 0l-1.2.305 1.2.02c.66.01 1.56-.136 2-.325l.8-.344-.8.019c-.44.011-1.34.157-2 .325m-27 .776c.539.37 4.768.635 4.367.274-.092-.082-1.247-.27-2.567-.418-1.696-.189-2.224-.146-1.8.144m20.4.024c-1.33.28-1.3.297.6.341 1.1.026 2.27-.128 2.6-.341.72-.465-.989-.465-3.2 0m-130.37 3.482c1.306 1.456 1.612 1.755 2.988 2.911.65.547.372.109-.618-.973a560.913 560.913 0 0 1-2.271-2.493c-.26-.29-.606-.527-.77-.527-.164 0 .138.487.671 1.082m6.77 6.924c6.422 6.205 14.911 13.129 21.4 17.455 3.265 2.177 3.4 2.246 3.4 1.763 0-.233-.236-.424-.525-.424-.288 0-.911-.36-1.383-.8-.472-.44-1.012-.8-1.2-.8-.188 0-.69-.322-1.117-.717-.426-.394-1.675-1.328-2.775-2.075-3.204-2.177-10.653-8.143-13.243-10.606-3.871-3.682-6.079-5.691-6.757-6.151-.44-.299.55.761 2.2 2.355m223 .238c-2.408 2.188-9.052 7.597-11 8.954-.77.537-1.599 1.168-1.842 1.403-.244.235-1.816 1.32-3.495 2.413-1.679 1.092-3.055 2.13-3.058 2.305-.015.909 15.297-10.69 19.795-14.995 2.538-2.429 2.249-2.487-.4-.08M306.8 326.4c-1.21.859-2.425 1.57-2.7 1.581-.275.01-.5.21-.5.443 0 .466-.052.492 3.5-1.731 1.375-.861 2.5-1.639 2.5-1.729 0-.403-.753-.017-2.8 1.436m-4.7 2.888c-.495.239-.9.591-.9.782 0 .192.45.054 1-.307 1.467-.961 1.416-1.206-.1-.475m-5.9 3.261c-.44.258-1.22.705-1.734.993-.514.287-.856.601-.761.696.184.184 3.895-1.79 3.895-2.072 0-.269-.544-.12-1.4.383m-6.335 3.298c-.625.339-1.059.692-.965.786.187.187 2.7-.987 2.7-1.262 0-.309-.582-.149-1.735.476m-4.203 2.005c-1.176.553-2.059 1.085-1.961 1.182.193.194 4.699-1.785 4.699-2.063 0-.318-.593-.127-2.738.881m-136.262.822c.496.485 4.671 2.188 4.872 1.987.081-.081-.802-.548-1.963-1.039-3.083-1.305-3.368-1.398-2.909-.948m130.421 1.789c-4.905 2.186-16.872 6.337-18.271 6.337-.387 0-.814.18-.95.4-.136.22-.629.4-1.095.4-.467 0-1.401.168-2.077.373a79.399 79.399 0 0 1-5.575 1.427c-.631.131-1.053.334-.937.45.19.19 7.077-1.368 10.084-2.281 2.85-.866 11.269-3.637 12-3.95.44-.188 2.33-.938 4.2-1.665 3.72-1.447 6.428-2.72 5.8-2.726-.22-.002-1.651.553-3.179 1.235m-125.021.547c0 .231.675.513 5.4 2.259 6.784 2.505 11.89 4.023 10.6 3.149-.33-.223-.917-.409-1.305-.412-.388-.003-1.018-.179-1.4-.391-.382-.211-2.675-1.048-5.095-1.86s-5.18-1.809-6.133-2.216c-1.873-.799-2.067-.848-2.067-.529m17.8 6.245c4.095 1.317 11.82 3.038 11.304 2.518-.163-.164-1.063-.441-2-.614a69.218 69.218 0 0 1-3.504-.766 47.886 47.886 0 0 0-3.104-.666c-.717-.119-1.402-.376-1.523-.571-.121-.196-.705-.341-1.297-.322l-1.076.035 1.2.386m11.833 2.889c.092.08.977.262 1.967.406 1.258.183 1.619.141 1.2-.138-.54-.359-3.568-.615-3.167-.268m62.767.268c-.419.279-.058.321 1.2.138 2.241-.325 2.56-.552.767-.544-.752.003-1.637.186-1.967.406m-58.767.534c.092.08 1.157.264 2.367.409 1.533.184 2.018.142 1.6-.139-.538-.362-4.37-.623-3.967-.27m54.367.277c-.426.291-.02.332 1.4.142 1.1-.147 2.075-.334 2.167-.416.401-.359-3.028-.095-3.567.274m-49.567.522c.092.08 1.427.253 2.967.383 1.766.15 2.505.107 2-.117-.753-.334-5.325-.578-4.967-.266m44.167.271c-.516.232.124.275 1.8.119 1.43-.133 2.675-.307 2.767-.388.358-.316-3.814-.07-4.567.269m-38.167.53c.092.081 2.057.246 4.367.367 2.803.147 3.668.106 2.6-.123-1.558-.335-7.299-.536-6.967-.244m30.567.265c-.682.18.441.222 2.6.098 2.09-.12 3.875-.283 3.967-.363.319-.279-5.375-.049-6.567.265m-16.924.688c2.792.068 7.472.069 10.4 0 2.928-.068.644-.124-5.076-.125-5.72 0-8.116.056-5.324.125M.206 360.2c.604 4.106 1.748 7.779 3.894 12.5.603 1.326 4.277 7.418 4.644 7.7.143.11.761.871 1.372 1.692 1.554 2.084 5.413 5.942 7.084 7.082.77.525.041-.316-1.621-1.87-3.028-2.832-7.278-7.914-8.793-10.515C3.869 371.783.814 363.568.794 360.68c-.003-.484-.19-1.15-.415-1.48-.295-.434-.343-.157-.173 1m393.686 13.252c-.823 1.649-1.346 2.905-1.164 2.792.457-.282 3.037-5.412 2.828-5.622-.093-.092-.842 1.181-1.664 2.83m-2.447 4.336c-.365.556-.523 1.012-.35 1.012.389 0 1.424-1.614 1.187-1.851-.096-.096-.472.282-.837.839m-1.801 2.551c-.98 1.375-1.113 1.987-.244 1.118.33-.33.6-.778.6-.995 0-.217.225-.476.5-.574.275-.098.385-.303.244-.456-.141-.153-.636.255-1.1.907m-4.444 5.167c-2.638 2.72-2.961 3.353-.559 1.094 1.094-1.029 3.897-4.202 3.706-4.194-.081.003-1.497 1.398-3.147 3.1m-4.567 4.14c-.591.465-.987.933-.88 1.04.107.107.7-.273 1.317-.846 1.349-1.251 1.066-1.377-.437-.194M21.29 392.199c3.367 2.259 5.395 3.402 6.022 3.396.268-.002-.682-.655-2.112-1.45-1.43-.796-3.352-1.964-4.272-2.596-.92-.632-1.818-1.149-1.996-1.149-.178 0 .883.809 2.358 1.799m352.157 1.993c-2.677 1.463-8.408 3.67-11.247 4.329-.594.138-.515.198.305.233.608.025 1.418-.112 1.8-.305.382-.193 1.415-.565 2.295-.826 2.851-.848 7.772-3.166 9.4-4.429 1.436-1.114.999-.943-2.553.998m-345.271 1.769c.101.164.958.541 1.904.838.946.297 1.891.689 2.1.871.209.181.783.33 1.276.33s1.008.18 1.144.4c.136.22.765.4 1.398.4.632 0 1.567.156 2.076.348.509.191 2.366.449 4.126.575 2.772.196 2.906.179 1-.131-6.022-.98-8.096-1.456-11.504-2.641-2.037-.708-3.621-1.153-3.52-.99m329.428 3.29c-4.127.477-4.486.762-.604.479 1.76-.129 3.47-.385 3.8-.57.33-.185.42-.318.2-.296-.22.022-1.748.196-3.396.387"/></g></svg>