<svg version="1.1" id="Layer_1" xmlns="http://www.w3.org/2000/svg" xmlns:xlink="http://www.w3.org/1999/xlink" x="0px" y="0px" viewBox="0 0 1000 1000" style="enable-background:new 0 0 1000 1000;" xml:space="preserve" fill="#B35160">
<path d="M500,0C223.9,0,0,223.9,0,500s223.9,500,500,500s500-223.9,500-500S776.1,0,500,0z M594.6,319.1L449.1,503.6L310.8,81.1  L594.6,319.1z M249.2,881.1l184.2-329l-31.5,285.1L249.2,881.1z M428.7,722.5l21.8-197.3l244.5,32.1L428.7,722.5z M458.9,512.8  l145.5-184.5l99,216.6L458.9,512.8z M657.3,409.3l122.1-59.4l-62.6,189.8L657.3,409.3z M761.4,448.9l28.6-86.6l30.2,141.3  L761.4,448.9z"/>
</svg>