<svg xmlns="http://www.w3.org/2000/svg" viewBox="0 0 1000 1000" fill="#42C37B"><path d="M500.496 995.003c275.935 0 494.507-224.506 494.507-495.496C995.003 226.54 773.464 5 500.496 5 223.572 5 5 229.506 5 499.507c0 276.924 224.506 495.496 495.496 495.496zM200.825 672.585c-8.901-69.231 28.681-122.638 119.67-171.1-87.033-36.593-135.494-95.934-113.736-193.847 14.835-60.33 68.242-107.802 132.528-112.747 85.055-5.934 138.462 38.571 168.132 124.616 37.583-93.957 96.924-139.452 192.858-119.671 67.253 13.846 108.792 69.23 116.704 137.473 6.923 67.253-29.67 116.703-119.671 167.143 90 41.539 129.56 98.902 119.67 168.133-10.878 73.187-59.34 123.626-131.538 135.495-70.22 13.846-125.605-22.748-178.023-119.671-34.615 89.011-93.956 137.473-189.89 116.704-64.286-14.836-108.792-67.253-116.704-132.528zm192.858-171.1c59.34 19.78 93.956 57.363 113.736 122.638 22.748-65.275 58.352-102.858 115.715-118.682-27.692-18.791-52.418-29.67-71.21-48.461-17.801-17.803-29.67-41.54-45.494-70.22-17.802 59.34-57.363 94.945-112.747 114.725z"/></svg>